<svg width="29" height="28" viewBox="0 0 29 28" fill="none" xmlns="http://www.w3.org/2000/svg">
<g clip-path="url(#clip0_402_426)">
<path d="M8.12882 11.5097H7.22093C5.98196 11.4649 4.74702 11.6753 3.59273 12.1276C2.43844 12.58 1.38944 13.2648 0.51083 14.1395L0.260376 14.4317V23.0724H4.5181V18.1676L5.09206 17.5206L5.35295 17.218C6.71159 15.8222 8.40305 14.7951 10.2681 14.2334C9.33434 13.5229 8.59789 12.5853 8.12882 11.5097Z" fill="#F7F2F3"/>
<path d="M28.3113 14.1082C27.4327 13.2335 26.3837 12.5487 25.2294 12.0963C24.0751 11.644 22.8402 11.4336 21.6012 11.4784C21.2212 11.4795 20.8415 11.5004 20.4637 11.541C19.9859 12.55 19.2695 13.4276 18.3766 14.0977C20.3677 14.6486 22.1714 15.7308 23.5944 17.2284L23.8553 17.5206L24.4188 18.1676V23.0828H28.5304V14.4004L28.3113 14.1082Z" fill="#F7F2F3"/>
<path d="M7.18962 9.47481H7.51313C7.36282 8.18418 7.58928 6.87762 8.16518 5.71287C8.74107 4.54811 9.64179 3.57493 10.7586 2.91081C10.3538 2.29234 9.79525 1.78962 9.13775 1.45186C8.48025 1.1141 7.7463 0.952888 7.00777 0.98401C6.26924 1.01513 5.55146 1.23752 4.9247 1.6294C4.29794 2.02128 3.78371 2.56921 3.43234 3.21955C3.08098 3.86988 2.90453 4.60032 2.92028 5.33933C2.93603 6.07835 3.14344 6.80061 3.52219 7.43538C3.90095 8.07015 4.43807 8.59568 5.08095 8.9605C5.72383 9.32532 6.45044 9.51692 7.18962 9.51655V9.47481Z" fill="#F7F2F3"/>
<path d="M21.1003 8.69212C21.113 8.93197 21.113 9.17232 21.1003 9.41217C21.3006 9.44392 21.5028 9.46136 21.7056 9.46435H21.9038C22.6398 9.42511 23.353 9.19598 23.9741 8.79927C24.5952 8.40256 25.103 7.85179 25.448 7.20057C25.7931 6.54936 25.9636 5.8199 25.9431 5.08321C25.9225 4.34651 25.7116 3.6277 25.3307 2.99674C24.9499 2.36577 24.4122 1.84417 23.77 1.48271C23.1277 1.12125 22.4028 0.932242 21.6658 0.934096C20.9289 0.935949 20.2049 1.1286 19.5645 1.49329C18.9241 1.85798 18.389 2.38228 18.0114 3.01515C18.9559 3.63182 19.7325 4.47332 20.2716 5.46414C20.8108 6.45497 21.0955 7.56413 21.1003 8.69212Z" fill="#F7F2F3"/>
<path d="M14.2546 13.3673C16.8308 13.3673 18.9193 11.2788 18.9193 8.70256C18.9193 6.12631 16.8308 4.03784 14.2546 4.03784C11.6783 4.03784 9.58984 6.12631 9.58984 8.70256C9.58984 11.2788 11.6783 13.3673 14.2546 13.3673Z" fill="#F7F2F3"/>
<path d="M14.5049 15.851C13.1421 15.7959 11.7822 16.0172 10.5071 16.5014C9.232 16.9856 8.06803 17.7228 7.08523 18.6686L6.82434 18.9608V25.5665C6.82841 25.7817 6.87484 25.9939 6.96096 26.1912C7.04708 26.3884 7.17121 26.5667 7.32627 26.716C7.48132 26.8652 7.66426 26.9824 7.86463 27.0609C8.06499 27.1395 8.27887 27.1778 8.49404 27.1736H20.4845C20.6997 27.1778 20.9136 27.1395 21.114 27.0609C21.3143 26.9824 21.4973 26.8652 21.6523 26.716C21.8074 26.5667 21.9315 26.3884 22.0176 26.1912C22.1037 25.9939 22.1502 25.7817 22.1542 25.5665V18.9816L21.9038 18.6686C20.9274 17.7199 19.7674 16.9806 18.4952 16.4961C17.2229 16.0116 15.8651 15.7921 14.5049 15.851Z" fill="#F7F2F3"/>
</g>
<defs>
<clipPath id="clip0_402_426">
<rect width="29" height="26.3636" fill="white" transform="translate(0 0.818176)"/>
</clipPath>
</defs>
</svg>
