<svg width="27" height="27" viewBox="0 0 27 27" fill="none" xmlns="http://www.w3.org/2000/svg">
<g clip-path="url(#clip0_402_441)">
<path d="M23.2046 0.783386L16.7749 5.60566V8.72307L12.6042 12.8938C12.9452 13.1073 13.2707 13.3489 13.5621 13.6408C13.8534 13.9321 14.0956 14.2576 14.309 14.5987L18.4798 10.4279H21.5972L26.4195 3.99824L23.2046 0.783386ZM7.13038 14.7775L1.24921 20.6587C0.518331 21.3896 0.518331 22.5751 1.24921 23.3064L3.89644 25.9537C4.62782 26.685 5.81279 26.685 6.54417 25.9537L12.4253 20.0725C13.8876 18.6102 13.8876 16.2398 12.4253 14.7775C10.9631 13.3153 8.59263 13.3153 7.13038 14.7775Z" fill="#191617"/>
</g>
<defs>
<clipPath id="clip0_402_441">
<rect width="25.7188" height="25.7188" fill="white" transform="translate(0.700195 0.783386)"/>
</clipPath>
</defs>
</svg>
