<svg width="28" height="28" viewBox="0 0 28 28" fill="none" xmlns="http://www.w3.org/2000/svg">
<g clip-path="url(#clip0_402_451)">
<path d="M25.9453 18.8955C24.1638 18.8955 22.4402 18.6059 20.8325 18.0844C20.5807 17.9991 20.3098 17.9864 20.0511 18.0479C19.7924 18.1094 19.5562 18.2425 19.3697 18.4321L17.0957 21.2854C12.9967 19.3301 9.1585 15.6367 7.11627 11.3929L9.94063 8.98856C10.3317 8.58301 10.4476 8.01814 10.2882 7.5112C9.75234 5.90349 9.47715 4.1799 9.47715 2.39838C9.47715 1.61625 8.82537 0.964478 8.04324 0.964478H3.03181C2.24968 0.964478 1.30823 1.31209 1.30823 2.39838C1.30823 15.8539 12.5043 27.0355 25.9453 27.0355C26.9737 27.0355 27.3792 26.123 27.3792 25.3264V20.3295C27.3792 19.5473 26.7275 18.8955 25.9453 18.8955Z" fill="#191617"/>
</g>
<defs>
<clipPath id="clip0_402_451">
<rect width="27.3125" height="27.3125" fill="white" transform="translate(0.6875 0.34375)"/>
</clipPath>
</defs>
</svg>
