<svg width="27" height="27" viewBox="0 0 27 27" fill="none" xmlns="http://www.w3.org/2000/svg">
<g clip-path="url(#clip0_402_164)">
<path d="M23.2045 0.783386L16.7748 5.60566V8.72307L12.6041 12.8938C12.9452 13.1073 13.2707 13.3489 13.562 13.6408C13.8533 13.9321 14.0955 14.2576 14.309 14.5987L18.4797 10.4279H21.5971L26.4194 3.99824L23.2045 0.783386ZM7.13029 14.7775L1.24912 20.6587C0.518239 21.3896 0.518239 22.5751 1.24912 23.3064L3.89635 25.9537C4.62772 26.685 5.8127 26.685 6.54408 25.9537L12.4252 20.0725C13.8875 18.6102 13.8875 16.2398 12.4252 14.7775C10.963 13.3153 8.59254 13.3153 7.13029 14.7775Z" fill="#191617"/>
</g>
<defs>
<clipPath id="clip0_402_164">
<rect width="25.7188" height="25.7188" fill="white" transform="translate(0.700134 0.783386)"/>
</clipPath>
</defs>
</svg>
