<svg width="34" height="28" viewBox="0 0 34 28" fill="none" xmlns="http://www.w3.org/2000/svg">
<g clip-path="url(#clip0_402_317)">
<path d="M33.5 7.60898V22.4112C33.5 23.7883 32.9568 25.109 31.9898 26.0827C31.0228 27.0565 29.7113 27.6035 28.3438 27.6035H5.65625C4.28873 27.6035 2.97722 27.0565 2.01023 26.0827C1.04325 25.109 0.5 23.7883 0.5 22.4112V7.60898L16.4761 17.0756C16.6348 17.1699 16.8157 17.2196 17 17.2196C17.1843 17.2196 17.3652 17.1699 17.5239 17.0756L33.5 7.60898ZM28.3438 0.603516C29.6125 0.603315 30.8368 1.07416 31.7824 1.92598C32.728 2.77779 33.3285 3.95077 33.4691 5.22052L17 14.9758L0.530938 5.22052C0.671514 3.95077 1.27204 2.77779 2.21764 1.92598C3.16324 1.07416 4.38751 0.603315 5.65625 0.603516H28.3438Z" fill="#F7F2F3"/>
</g>
<defs>
<clipPath id="clip0_402_317">
<rect width="33" height="27" fill="white" transform="translate(0.5 0.603516)"/>
</clipPath>
</defs>
</svg>
