<svg width="118" height="27" viewBox="0 0 118 27" fill="none" xmlns="http://www.w3.org/2000/svg">
<path d="M23.1111 0.603516H2.88889C1.3 0.603516 0 1.90352 0 3.4924V23.7146C0 25.305 1.3 26.6035 2.88889 26.6035H13V16.4924H10.1111V12.9174H13V9.95629C13 6.83052 14.7507 4.63496 18.4398 4.63496L21.0441 4.63785V8.40063H19.3151C17.8793 8.40063 17.3333 9.47818 17.3333 10.4777V12.9188H21.0427L20.2222 16.4924H17.3333V26.6035H23.1111C24.7 26.6035 26 25.305 26 23.7146V3.4924C26 1.90352 24.7 0.603516 23.1111 0.603516Z" fill="black"/>
<path d="M68.1509 22.7598H64.3008V16.7268C64.3008 15.2881 64.2715 13.4367 62.2944 13.4367C60.287 13.4367 59.9804 15.0021 59.9804 16.6206V22.7598H56.1302V10.3535H59.8288V12.0446H59.8786C60.3953 11.0696 61.652 10.0404 63.5294 10.0404C67.4305 10.0404 68.152 12.6079 68.152 15.95L68.1509 22.7598ZM51.7818 8.65593C51.488 8.65608 51.1972 8.59829 50.9258 8.48589C50.6545 8.37349 50.4079 8.20868 50.2003 8.00089C49.9928 7.7931 49.8282 7.54642 49.716 7.27495C49.6039 7.00348 49.5464 6.71256 49.5468 6.41885C49.547 5.97661 49.6784 5.54437 49.9243 5.17678C50.1701 4.80919 50.5195 4.52276 50.9282 4.35372C51.3368 4.18468 51.7864 4.14062 52.2201 4.22711C52.6538 4.3136 53.0521 4.52675 53.3647 4.83961C53.6772 5.15247 53.89 5.55099 53.9761 5.98477C54.0621 6.41856 54.0176 6.86812 53.8482 7.27661C53.6788 7.68511 53.392 8.03418 53.0242 8.2797C52.6564 8.52522 52.224 8.65615 51.7818 8.65593ZM53.7123 22.7598H49.8513V10.3535H53.7123V22.7598ZM70.0771 0.603516H47.9186C46.858 0.603516 46 1.44202 46 2.4766V24.7304C46 25.7661 46.858 26.6035 47.9186 26.6035H70.0738C71.1333 26.6035 72 25.7661 72 24.7304V2.4766C72 1.44202 71.1333 0.603516 70.0738 0.603516H70.0771Z" fill="black"/>
<path d="M105 10.3795C104.362 10.3795 103.739 10.5686 103.209 10.9229C102.679 11.2771 102.265 11.7806 102.021 12.3697C101.777 12.9589 101.714 13.6071 101.838 14.2325C101.962 14.8579 102.269 15.4323 102.72 15.8832C103.171 16.3341 103.746 16.6412 104.371 16.7656C104.996 16.89 105.645 16.8261 106.234 16.5821C106.823 16.3381 107.326 15.9249 107.681 15.3947C108.035 14.8645 108.224 14.2412 108.224 13.6035C108.224 13.1801 108.141 12.7609 107.979 12.3697C107.817 11.9786 107.579 11.6232 107.28 11.3238C106.98 11.0244 106.625 10.7869 106.234 10.6249C105.843 10.4629 105.423 10.3795 105 10.3795ZM117.909 7.19452C117.902 6.1906 117.717 5.19586 117.363 4.25652C117.102 3.56915 116.698 2.94494 116.178 2.42506C115.659 1.90518 115.034 1.50145 114.347 1.24052C113.408 0.886219 112.413 0.701355 111.409 0.694516C109.732 0.603516 109.238 0.603516 105 0.603516C100.762 0.603516 100.268 0.603516 98.591 0.694516C97.5871 0.701355 96.5923 0.886219 95.653 1.24052C94.9656 1.50145 94.3414 1.90518 93.8215 2.42506C93.3017 2.94494 92.8979 3.56915 92.637 4.25652C92.2827 5.19586 92.0978 6.1906 92.091 7.19452C92 8.87152 92 9.36552 92 13.6035C92 17.8415 92 18.3355 92.091 20.0125C92.105 21.02 92.2896 22.0178 92.637 22.9635C92.8968 23.6477 93.3002 24.2683 93.82 24.7835C94.3377 25.3065 94.9632 25.7102 95.653 25.9665C96.5923 26.3208 97.5871 26.5057 98.591 26.5125C100.268 26.6035 100.762 26.6035 105 26.6035C109.238 26.6035 109.732 26.6035 111.409 26.5125C112.413 26.5057 113.408 26.3208 114.347 25.9665C115.037 25.7102 115.662 25.3065 116.18 24.7835C116.7 24.2683 117.103 23.6477 117.363 22.9635C117.717 22.0196 117.902 21.0206 117.909 20.0125C118 18.3355 118 17.8415 118 13.6035C118 9.36552 118 8.87152 117.909 7.19452ZM114.607 17.5945C114.565 18.3967 114.394 19.187 114.1 19.9345C113.848 20.5581 113.472 21.1246 112.997 21.6003C112.521 22.076 111.955 22.4511 111.331 22.7035C110.576 22.9812 109.782 23.1348 108.978 23.1585H101.022C100.218 23.1348 99.4236 22.9812 98.669 22.7035C98.0243 22.4639 97.4422 22.0818 96.966 21.5855C96.495 21.1191 96.1312 20.5557 95.9 19.9345C95.6212 19.1807 95.4718 18.3851 95.458 17.5815V9.62551C95.4718 8.82189 95.6212 8.02637 95.9 7.27252C96.1396 6.62785 96.5218 6.04568 97.018 5.56952C97.4864 5.10103 98.0492 4.73764 98.669 4.50352C99.4236 4.22584 100.218 4.07219 101.022 4.04852H108.978C109.782 4.07219 110.576 4.22584 111.331 4.50352C111.976 4.74308 112.558 5.12527 113.034 5.62152C113.505 6.08789 113.869 6.65129 114.1 7.27252C114.378 8.02715 114.531 8.82176 114.555 9.62551V13.6035C114.555 16.2815 114.646 16.5545 114.607 17.5815V17.5945ZM112.527 7.92252C112.372 7.50259 112.128 7.12125 111.812 6.80479C111.495 6.48834 111.114 6.2443 110.694 6.08952C110.117 5.88965 109.51 5.79284 108.9 5.80352H101.1C100.487 5.80951 99.8794 5.92394 99.306 6.14152C98.8925 6.28927 98.5152 6.52334 98.1992 6.82818C97.8831 7.13301 97.6356 7.50162 97.473 7.90952C97.2842 8.48849 97.192 9.09459 97.2 9.70352V17.5035C97.2129 18.1161 97.3271 18.7223 97.538 19.2975C97.6928 19.7174 97.9368 20.0988 98.2533 20.4152C98.5697 20.7317 98.9511 20.9757 99.371 21.1305C99.9257 21.3345 100.509 21.4486 101.1 21.4685H108.9C109.513 21.4625 110.121 21.3481 110.694 21.1305C111.114 20.9757 111.495 20.7317 111.812 20.4152C112.128 20.0988 112.372 19.7174 112.527 19.2975C112.745 18.7241 112.859 18.1168 112.865 17.5035V9.70352C112.865 9.08965 112.751 8.48115 112.527 7.90952V7.92252ZM105 18.5695C104.348 18.5695 103.703 18.441 103.102 18.1912C102.5 17.9415 101.953 17.5755 101.493 17.1142C101.033 16.6529 100.668 16.1054 100.42 15.5029C100.172 14.9005 100.045 14.255 100.047 13.6035C100.047 12.6208 100.339 11.6601 100.885 10.8432C101.431 10.0263 102.207 9.38978 103.116 9.0143C104.024 8.63882 105.023 8.54124 105.987 8.73391C106.95 8.92658 107.835 9.40084 108.529 10.0966C109.223 10.7925 109.695 11.6785 109.885 12.6427C110.075 13.6069 109.975 14.6058 109.597 15.5129C109.219 16.4201 108.581 17.1948 107.762 17.7389C106.944 18.283 105.983 18.5721 105 18.5695ZM110.2 9.61252C109.913 9.5821 109.647 9.4464 109.453 9.23158C109.26 9.01675 109.153 8.738 109.153 8.44902C109.153 8.16004 109.26 7.88128 109.453 7.66645C109.647 7.45163 109.913 7.31593 110.2 7.28552C110.487 7.31593 110.753 7.45163 110.947 7.66645C111.14 7.88128 111.247 8.16004 111.247 8.44902C111.247 8.738 111.14 9.01675 110.947 9.23158C110.753 9.4464 110.487 9.5821 110.2 9.61252Z" fill="black"/>
</svg>
