<svg width="28" height="28" viewBox="0 0 28 28" fill="none" xmlns="http://www.w3.org/2000/svg">
<g clip-path="url(#clip0_402_174)">
<path d="M25.9454 18.8955C24.1639 18.8955 22.4403 18.6059 20.8326 18.0844C20.5807 17.9991 20.3099 17.9864 20.0511 18.0479C19.7924 18.1094 19.5562 18.2425 19.3697 18.4321L17.0957 21.2854C12.9968 19.3301 9.15853 15.6367 7.1163 11.3929L9.94066 8.98856C10.3317 8.58301 10.4476 8.01814 10.2883 7.5112C9.75237 5.90349 9.47718 4.1799 9.47718 2.39838C9.47718 1.61625 8.8254 0.964478 8.04327 0.964478H3.03184C2.24971 0.964478 1.30826 1.31209 1.30826 2.39838C1.30826 15.8539 12.5043 27.0355 25.9454 27.0355C26.9737 27.0355 27.3793 26.123 27.3793 25.3264V20.3295C27.3793 19.5473 26.7275 18.8955 25.9454 18.8955Z" fill="#191617"/>
</g>
<defs>
<clipPath id="clip0_402_174">
<rect width="27.3125" height="27.3125" fill="white" transform="translate(0.6875 0.34375)"/>
</clipPath>
</defs>
</svg>
