<svg width="29" height="28" viewBox="0 0 29 28" fill="none" xmlns="http://www.w3.org/2000/svg">
<g clip-path="url(#clip0_402_391)">
<path d="M26.1016 18.8428C24.3201 18.8428 22.5965 18.5531 20.9888 18.0317C20.7369 17.9463 20.4661 17.9337 20.2073 17.9951C19.9486 18.0566 19.7124 18.1898 19.5259 18.3793L17.2519 21.2327C13.153 19.2773 9.31475 15.5839 7.27252 11.3402L10.0969 8.93582C10.4879 8.53028 10.6038 7.9654 10.4445 7.45847C9.90859 5.85075 9.6334 4.12717 9.6334 2.34565C9.6334 1.56352 8.98162 0.911743 8.19949 0.911743H3.18806C2.40593 0.911743 1.46448 1.25936 1.46448 2.34565C1.46448 15.8012 12.6605 26.9828 26.1016 26.9828C27.13 26.9828 27.5355 26.0703 27.5355 25.2737V20.2767C27.5355 19.4946 26.8837 18.8428 26.1016 18.8428Z" fill="#F7F2F3"/>
</g>
<defs>
<clipPath id="clip0_402_391">
<rect width="27.3125" height="27.3125" fill="white" transform="translate(0.84375 0.291016)"/>
</clipPath>
</defs>
</svg>
