<svg width="117" height="80" viewBox="0 0 117 80" fill="none" xmlns="http://www.w3.org/2000/svg">
<path d="M4.20363 50.4021L4.38349 51.5298L3.92859 51.7858L4.20363 50.4021ZM45.1039 22.8478L48.1834 22.6701L49.5848 21.9901L50.4378 22.181L51.5319 21.4201L53.8282 21.4501L54.9293 20.924L54.8131 20.2854L55.1755 19.8746L59.0784 20.5088L59.8869 20.9821L59.907 21.4017L61.7633 22.3755L67.7696 21.4219L70.3541 21.9295L73.761 21.2609L75.5274 19.3855L76.6712 19.1242L76.4974 18.212L76.0006 17.8451L78.8933 14.5991L80.802 13.1811L82.5622 10.8182L84.4238 9.8981L84.3766 9.17852L83.548 8.07453L84.2989 7.45259L84.7337 8.43608L85.1353 8.21L86.4057 8.77914L87.5662 8.23462L88.0918 9.17236L92.1632 7.27314L92.2898 6.90894L93.5061 6.923L94.2264 6.27028L95.0315 6.15769L95.4235 5.41436L98.538 4.68334L103.752 2.68735L104.992 3.29081L107.398 2.46654L109.057 0.891036L113.063 0.484619L115.833 0.668476L114.916 2.35307L113.012 3.96904L112.232 5.02641L112.365 5.36069L111.824 5.58677L112.524 6.477L112.195 6.80249L112.615 7.28542L112.353 7.815L113.03 8.23636L113.317 8.9885L114.074 9.26471L114.226 10.2368L113.489 11.8026L113.819 12.0744L114.207 11.5185L114.288 12.3031L114.722 11.5369L115.327 11.4983L115.658 11.9302L115.837 11.6953L116.579 13.0905L114.532 14.6581L114.304 15.2527L113.692 14.6106L112.702 14.6615L108.75 15.9441L107.399 15.1383L106.367 16.2758L106.332 17.8768L104.336 18.5128L102.501 20.0452L101.537 19.7839L99.9751 21.3471L98.3546 22.2004L97.7023 22.3473L96.6511 21.6515L95.8845 22.0553L94.3486 24.6503L92.2357 26.1572L91.1705 26.444L90.7286 26.0209L90.1899 27.0105L89.6486 26.6032L88.2393 27.4459L88.1398 28.1505L87.1418 28.5834L86.9873 30.2635L86.1036 30.7483L85.4706 31.6833L85.0568 31.3183L84.9817 29.6117L84.7433 29.7199L83.0948 31.7326L82.894 34.1104L81.6603 34.4746L79.7743 37.6018L79.5237 39.6541L78.861 40.9851L79.3098 42.7708L78.1485 43.4227L77.5425 44.2725L76.8039 43.932L75.9534 44.9146L75.6618 44.2645L76.0006 42.9741L75.5379 41.8269L75.151 42.4313L73.9775 42.9802L74.3033 44.2179L71.8864 46.0046L70.5453 48.1237L69.2225 48.633L67.4718 50.3519L68.6445 52.0295L69.8502 52.6268L70.1488 53.7378L69.6678 54.4609L70.072 55.1682L68.5135 56.4516L67.5461 59.4883L66.9767 60.4559L66.3105 60.4216L65.9569 61.0453L66.2049 62.4079L65.7945 62.6604L66.0373 63.0642L65.5955 63.9025L65.0122 64.323L65.0157 65.2352L64.2037 65.6689L63.6501 65.0628L63.4144 65.266L63.3672 66.6348L62.7944 67.2708L63.3218 67.9763L62.7866 69.5712L63.3637 69.8263L62.5246 70.0022L62.7359 70.2784L62.0619 71.5689L62.1239 73.2957L61.4166 73.455L60.2327 73.6107L59.7909 73.2614L59.6747 73.6327L58.9011 73.5315L58.2812 73.9687L57.1165 71.0904L55.7535 74.4305L54.539 74.8756L54.3067 76.4696L53.1935 76.6192L52.8442 77.9941L52.0095 78.2994L51.9187 78.7181L51.1093 78.4964L50.8491 76.474L48.551 76.5013L47.0195 76.5505L48.1101 73.937L47.3531 72.3069L47.3513 71.4272L47.7154 68.3466L48.5807 66.7456L47.5251 63.4644L48.5833 63.043L50.2842 64.4575L51.0307 64.4135L51.3389 63.906L52.1186 63.9711L52.3553 63.3588L52.0732 62.3498L51.696 62.59L51.3922 62.3683L51.7877 62.2944L51.5476 61.9091L50.9608 61.9813L50.9137 60.784L51.5965 60.6767L51.9807 59.2428L53.0529 59.4135L52.7185 58.5963L54.4909 59.0475L55.3178 57.8468L57.8315 56.9908L57.1051 56.3839L57.608 55.6581L57.4657 54.6993L57.03 54.6438L56.6004 53.7114L56.2547 53.8389L55.4435 52.9848L55.1938 53.122L55.0873 52.6153L54.2622 52.9962L54.0622 51.8781L53.5008 51.9634L54.9127 50.5436L55.0733 49.4317L54.1434 50.1381L53.5942 50.0765L53.3218 49.0297L52.2994 48.808L51.6367 47.5985L51.0281 47.4252L51.0464 46.6027L50.1672 46.1532L49.2259 46.7293L47.3146 46.9123L46.0669 47.8131L45.9281 44.9489L46.4171 43.7798L47.2509 43.0294L46.1211 42.9326L45.9875 42.2606L48.5641 39.523L47.5373 39.8608L46.3882 39.5151L45.5631 40.2003L44.0954 40.4669L42.9664 40.2998L41.7065 41.146L40.7565 40.0728L40.8596 39.1439L39.8266 38.7154L38.2174 39.9294L38.0158 42.0723L37.0859 43.0637L36.0224 42.3609L36.5131 41.8533L36.4066 40.6807L35.3772 40.4625L34.0212 42.7523L34.5643 42.6925L33.5296 43.7604L34.1329 43.8369L34.5337 43.3848L34.4551 43.7261L32.9743 44.3744L32.508 44.0955L30.9486 44.4193L29.8895 46.2886L28.9439 46.7663L28.3607 46.6413L28.1397 45.6904L28.4427 44.0076L26.0084 44.794L25.7639 44.6207L26.2878 44.1378L25.75 44.2152L24.8664 44.7553L25.3868 43.4165L24.2578 43.434L23.8055 42.2042L23.3148 42.2939L23.3733 42.9018L22.7132 42.1189L21.868 42.3951L21.3764 42.111L20.7949 43.0047L20.1095 42.864L20.2353 42.0063L19.1141 42.1391L17.9948 43.1965L17.6604 42.9238L18.0716 42.4109L17.2203 41.9553L15.9429 43.2493L16.3428 41.9904L15.2986 40.8249L14.4088 41.3589L13.8212 40.8469L13.2449 40.9252L12.5019 41.658L9.90957 42.2676L8.74218 41.9254L6.65977 43.6073L6.97409 43.8748L6.72524 44.2557L5.5605 44.7105L5.7552 45.7283L5.35793 46.3361L4.61139 46.5305L6.89026 49.2294L4.20014 50.4064L4.47606 48.6681L3.55142 46.8877L3.71468 45.8549L3.18381 44.8644L4.57036 42.3547L3.85963 42.228L3.67713 41.8717L4.29705 41.6237L3.6422 40.9243L3.64572 41.5243L3.33836 41.4451L2.9926 40.3349L2.515 40.385L2.98125 39.9628L2.87299 39.3813L2.17012 38.9142L2.38139 38.5386L2.01992 37.9641L1.43232 37.7513L1.71346 37.5683L0.994873 37.2806L1.67416 36.8065L1.03852 36.7053L1.61391 36.2769L1.17649 35.6304L1.54932 35.8652L1.77371 35.6066L1.41484 34.8993L2.1605 35.2336L2.01208 34.5765L2.5665 34.3839L2.58747 33.9264L3.96352 33.2887L3.77231 32.9148L3.4152 33.0432L4.20712 31.7466L3.87884 31.1757L4.04908 29.331L4.33286 29.2008L3.95828 28.3985L4.31104 27.8636L3.95654 26.7509L4.05521 26.07L5.79884 26.3532L9.23987 25.7023L10.0196 25.3803L9.93403 24.5772L10.4972 23.6746L12.0811 23.7872L13.0598 22.8037L14.0587 22.685L16.8047 24.7557L19.5891 25.4419L25.8347 25.1982L26.6144 24.3713L29.6433 24.6748L30.9958 25.1947L32.3124 24.0476L33.8561 24.9871L36.2503 24.3397L37.4107 24.6722L39.5062 23.7081L40.5269 22.4352L41.2481 22.392L42.8625 23.5805L43.9583 23.8004L44.752 23.5242L45.1039 22.8478Z" fill="#574D4F" stroke="#F7F2F3" stroke-width="0.611194"/>
</svg>
