<svg width="148" height="126" viewBox="0 0 148 126" fill="none" xmlns="http://www.w3.org/2000/svg">
<path d="M102.399 47.8968L102.06 50.0714L101.402 49.1293L101.388 48.4282L102.399 47.8968ZM101.83 47.9311L101.724 47.3831L101.486 47.7702L100.384 47.8555L100.334 47.2168L99.5469 47.7244L101.064 48.3938L101.043 49.3008L101.44 49.4231L102.019 50.7329L95.3419 54.0255L91.2452 55.6468L87.9657 54.7135L85.2546 55.0363L82.9242 56.2019L80.6549 61.2081L80.7414 62.0544L78.2023 64.7612L77.9639 65.1676L78.2992 65.9276L77.4715 66.6569L74.8259 67.0158L74.0698 65.7315L74.2976 65.0515L74.6233 65.0567L74.5212 64.55L72.354 63.7882L69.6229 64.3178L67.6775 65.2529L66.0072 66.3613L64.7333 67.7934L63.469 71.7194L61.6154 74.6769L60.6767 79.0805L61.8956 85.6342L63.4341 88.3515L62.1698 97.1553L64.2714 102.85L64.1195 106.235L65.5611 110.114L62.9259 105.298L62.4335 105.073L62.3322 106.741L61.7935 106.198L62.1035 105.659L61.7533 105.591L60.7326 107.207L62.7539 109.063L64.1239 109.094L65.5043 110.326L65.5052 111.323L64.8451 110.952L64.0104 109.302L62.5802 109.264L61.0697 108.158L59.6927 108.309L59.6203 108.677L60.3982 108.832L60.4585 109.159L59.9075 109.097L59.7154 109.629L59.1025 109.783L59.1278 110.411L58.5655 110.666L58.9506 111.235L58.438 111.952L57.0794 112.563L56.1495 112.546L55.775 112.965L55.3052 112.575L54.7054 113.15L55.8684 114.066L55.128 114.603L54.7342 114.097L54.1108 114.369L54.2444 113.871L53.8288 113.955L53.7414 112.969L52.1279 113.656L51.5516 113.247L51.315 112.421L49.3609 112.185L48.369 112.571L49.2911 112.979L49.0318 114.28L49.4936 113.948L49.6657 114.193L49.2291 114.348L49.2684 114.744L47.8792 115.202L48.0032 115.827L47.151 116.444L46.4097 115.612L45.513 115.718L45.5122 116.313L44.9752 116.676L44.3133 118.128L42.7845 117.999L41.1491 116.829L39.9573 116.993L39.5748 117.606L40.145 117.916L39.3635 117.896L39.2561 116.647L36.8795 117.414L36.0832 117.212L35.9243 118.184L35.1446 117.93L34.46 118.663L35.0634 119.786L34.6801 119.783L33.8803 122.568L33.2149 123.072L33.2534 124.166L32.8281 124.277L32.6745 123.829L32.5749 123.862L32.2623 123.83L32.1733 124.583L31.6084 124.602L31.6442 125.443L29.9756 125.548L28.5524 124.777L28.0765 124.047L26.7136 124.245L27.3964 123.61L27.2767 122.908L27.6504 121.129L28.7838 121.134L29.5574 119.615L30.159 120.232L31.2093 120.129L30.9692 118.854L31.6136 118.954L31.4975 117.672L32.4667 117.274L32.4178 116.731L32.8936 116.436L32.5426 116.018L33.6454 115.324L33.1311 114.747L33.6384 114.428L33.7991 113.342L33.4 112.639L32.7635 113.463L31.8668 112.479L31.2128 112.659L31.0024 112.269L30.3956 112.559L29.952 112.251L30.5073 112.019L29.7355 111.592L30.3868 107.396L27.406 107.225L26.594 107.805L26.7895 106.68L26.1783 106.543L26.091 106.067L24.7202 106.319L24.3107 105.723L24.4155 105.323L25.1707 105.394L25.2441 104.908L24.797 104.47L25.4056 103.651L25.3201 102.447L23.9964 101.583L23.9353 102.221L22.9731 102.056L22.6186 102.838L22.2309 102.842L22.1925 101.706L22.843 101.459L22.6308 100.38L21.6284 101.386L21.1788 100.745L19.9232 100.676L19.7049 101.171L20.0952 102.076L19.1505 102.542L19.195 102.975L17.9953 103.397L17.9202 104.484L17.6793 103.944L17.0977 104.116L17.2165 103.64L16.8306 103.672L16.1242 104.056L16.6044 104.437L16.3215 104.585L15.8527 104.28L15.1297 104.791L14.4644 104.275L14.3299 105.371L13.8741 104.973L13.7938 105.483L13.187 105.557L13.3276 103.273L12.4361 103.231L12.726 102.555L11.5367 102.356L10.8155 102.732L10.5763 102.138L9.54426 102.473L9.24041 101.428L8.83265 102.06L8.71216 101.687L8.23456 102.09L8.20225 101.004L7.8172 101.336L7.93681 102.143L7.23046 102.287L7.93158 102.827L8.01104 104.071L6.70745 103.954L6.06395 104.369L5.44751 103.755L5.17423 104.484L4.82934 104.299L4.38753 102.946L5.28075 101.458L5.71906 101.381L5.61952 100.85L3.70473 99.0186L4.50715 98.2163L3.62964 97.0473L2.83771 96.9751L2.97916 96.4473L3.81213 96.3171L3.8977 95.8755L5.32702 96.1878L5.11659 97.5962L5.39775 98.4424L7.17807 98.6518L7.65742 99.6054L10.6942 98.979L11.4302 99.7795L11.3307 101.397L12.0999 101.376L12.1261 101.712L12.7757 101.159L12.4151 100.652L12.8342 100.036L11.8293 100.029L11.9707 99.309L10.9256 99.0151L12.1916 97.4959L12.0868 97.2109L11.2608 97.6358L11.3193 97.1018L11.8485 97.0033L12.086 96.3295L14.109 96.5996L14.033 94.3194L13.2734 94.3115L13.0473 93.6016L12.0109 93.3158L11.8162 93.877L12.5601 95.449L11.9768 95.829L11.4582 95.1077L11.5289 94.3661L10.0734 94.2377L10.1022 93.1979L9.20287 93.577L7.74474 93.073L7.00955 94.0221L6.8847 95.4243L6.34073 95.4982L5.87098 94.9282L3.82785 94.9176L3.59123 94.3124L4.05225 93.8998L2.75476 92.9102L2.82811 92.0824L3.37556 91.6426L3.89596 91.9073L3.93612 91.0461L4.47746 90.4189L2.59149 90.6045L1.81178 89.5718L1.30275 89.4838L0.579788 88.079L1.27218 85.5701L0.948248 84.7247L2.19858 84.2568L2.48584 81.2271L1.81789 81.4735L0.64615 81.1163L1.02596 80.2305L0.837361 79.1933L1.25211 78.8256L2.71024 80.0026L4.63113 80.3501L4.97602 79.9859L5.82034 79.9929L5.71294 80.4433L6.40447 80.5462L7.77878 78.2617L7.37801 77.8412L7.84602 77.7225L7.85474 76.8718L7.1737 76.3519L7.96477 75.6341L7.66789 75.13L7.07416 75.0508L6.96939 74.3401L6.09014 74.443L5.46586 72.2922L4.4242 71.2339L4.45214 70.941L5.45188 71.0615L5.50077 68.5192L6.45423 68.1577L7.08989 68.6855L7.25053 68.0407L5.7566 66.6068L6.13467 64.9204L5.37417 64.7559L6.17309 63.4707L7.58931 62.6843L9.5172 62.3579L14.2793 63.0608L16.0509 63.2341L17.0122 63.9044L18.0573 63.7126L19.5757 64.1173L21.1936 63.535L23.2804 64.2334L23.9091 63.4179L24.4094 64.5123L25.2485 64.843L25.5453 64.4287L26.2552 64.4278L26.5355 63.4488L27.5946 62.9042L27.936 60.9584L29.0248 60.9998L30.6601 60.0128L33.4647 60.4807L34.5229 59.6705L36.2892 61.0464L37.4112 61.1036L38.5349 59.8887L38.5594 58.5675L39.0178 58.6369L39.1959 59.4551L39.8874 59.5492L39.7957 58.088L40.1625 57.6992L42.0895 56.8723L44.7517 57.4177L45.5209 56.9893L45.6414 51.8661L46.387 50.8491L49.3199 50.448L50.6104 49.5314L53.3677 48.9288L55.6859 47.6383L56.332 48.3852L57.275 48.2374L58.0102 49.3915L59.0353 49.3106L60.6759 47.341L61.074 46.0329L60.4052 45.2895L59.6482 45.0837L59.9756 44.2419L60.6392 43.1308L62.2475 42.7473L63.1294 41.6063L63.4786 42.2151L64.5919 42.2634L65.3079 43.3103L65.6344 44.935L66.3547 45.242L66.6167 46.0804L67.1056 45.3414L68.0722 45.9994L68.1421 46.4833L70.0874 47.0023L70.8418 46.5264L69.9363 45.8182L70.1267 44.972L70.5248 44.8787L70.4777 43.8724L68.7803 43.4572L68.7166 44.0457L66.3486 43.0279L66.9057 42.1975L66.5084 41.3838L67.0218 40.9817L67.4872 41.9907L67.9569 42.1403L68.6144 41.5034L68.8685 40.4003L70.0394 39.8232L71.8031 40.7865L71.4914 41.411L73.0656 41.2298L75.0162 41.9749L75.4982 41.4928L75.7077 39.6649L76.4936 39.6719L76.3478 38.6127L77.9177 39.0262L78.9279 38.3726L81.0531 38.0137L81.3962 36.2948L82.9609 36.3379L84.0121 34.9841L84.873 35.6254L85.6737 35.5401L87.0952 33.8678L87.241 32.1295L87.6479 31.5472L87.2681 31.161L88.5149 29.2785L88.6144 28.544L92.375 26.5092L92.5654 26.1134L91.935 25.3278L92.7164 24.5053L95.4712 23.4277L96.8036 22.1619L99.2833 22.4372L99.595 23.0732L100.77 23.667L101.237 23.5386L101.232 22.3475L101.798 22.0836L101.938 22.5489L102.381 22.4979L102.447 20.5345L102.889 20.8679L103.028 20.5873L101.949 19.5088L102.437 19.1217L102.511 18.1497L103.15 17.9975L103.537 17.3738L102.466 17.1679L103.38 16.166L102.957 15.3787L105.017 12.9288L105.476 13.607L105.915 13.5647L106.043 14.908L106.474 14.8438L106.135 15.7718L107.329 16.1738L107.527 16.6022L106.89 17.3667L106.969 18.0748L107.812 18.8718L108.395 17.7564L110.374 16.8978L110.853 15.6671L110.541 15.1895L110.961 14.8095L111.797 15.3804L112.523 15.3232L112.654 16.2081L113.4 16.5072L114.945 15.8686L115.607 16.0454L115.696 15.0083L115.316 15.2035L114.912 14.7118L116.264 12.9067L115.225 12.714L115.123 12.3279L115.618 11.9698L114.778 11.932L114.843 10.9547L115.563 10.6627L117.061 8.37636L118.318 8.96046L118.379 9.4698L118.641 8.50479L119.495 8.67458L119.74 8.04384L121.142 7.84152L121.19 7.22485L121.874 7.24947L122.148 6.69529L120.966 5.38895L121.58 5.45846L120.949 4.80487L120.643 5.58162L120.21 4.17325L120.96 3.78267L122.103 4.04833L122.956 5.02653L122.828 3.98148L123.305 3.96829L123.366 3.56364L123.026 2.62501L123.28 2.46844L123.652 2.9461L123.867 2.72003L124.018 3.49415L123.651 3.45546L123.685 3.75984L124.341 3.86978L124.616 2.54412L125.207 3.00946L125.676 2.26612L125.491 1.64332L126.021 0.99852L127.369 3.65515L127.848 3.74489L127.529 4.26126L128.261 5.55879L128.887 5.76023L128.146 4.39231L129.014 3.8126L130.534 7.4879L131.806 7.91016L133.401 7.80195L134.402 8.91388L135.154 8.84524L135.673 8.31392L138.979 7.99988L139.048 6.55457L139.53 6.85807L139.697 6.54578L139.33 6.23613L139.991 6.34255L139.583 5.98366L140.177 6.17982L140.755 5.64674L140.502 5.17524L140.96 4.61664L140.493 3.70793L141.527 4.3404L141.852 3.57159L143.253 2.7174L143.647 3.72552L144.105 2.91532L144.869 2.96459L144.863 2.40774L144.234 2.4957L143.722 1.5782L144.99 1.61687L145.06 0.941284L145.738 1.04949L145.586 1.66174L146.047 2.12005L146.813 2.59509L143.558 6.37066L143.031 7.98839L141.421 9.52344L139.415 12.5451L135.202 16.5055L135.182 17.32L127.775 21.0877L125.094 22.928L124.307 24.2537L122.124 26.2849V26.9262L120.926 28.5641L118.53 31.1425L107.457 36.7962L103.085 40.197L101.791 41.8403L101.319 43.5996L100.902 43.8011L101.034 44.6403L102.049 45.5279L102.826 45.3106L102.619 47.4825L101.83 47.9311Z" fill="#574D4F"/>
<path d="M101.83 47.9311L101.828 47.9373M101.83 47.9311L101.724 47.3831L101.486 47.7702L100.384 47.8555L100.334 47.2168L99.5469 47.7244L101.064 48.3938L101.043 49.3008L101.44 49.4231L102.019 50.7329L95.3419 54.0255L91.2452 55.6468L87.9657 54.7135L85.2546 55.0363L82.9242 56.2019L80.6549 61.2081L80.7414 62.0544L78.2023 64.7612L77.9639 65.1676L78.2992 65.9276L77.4715 66.6569L74.8259 67.0158L74.0698 65.7315L74.2976 65.0515L74.6233 65.0567L74.5212 64.55L72.354 63.7882L69.6229 64.3178L67.6775 65.2529L66.0072 66.3613L64.7333 67.7934L63.469 71.7194L61.6154 74.6769L60.6767 79.0805L61.8957 85.6342L63.4341 88.3515L62.1698 97.1553L64.2714 102.85L64.1195 106.235L65.5611 110.114L62.9259 105.298L62.4335 105.073L62.3322 106.741L61.7935 106.198L62.1034 105.659L61.7533 105.591L60.7326 107.207L62.7539 109.063L64.1239 109.094L65.5043 110.326L65.5052 111.323L64.8451 110.952L64.0104 109.302L62.5802 109.264L61.0697 108.158L59.6927 108.309L59.6203 108.677L60.3982 108.832L60.4585 109.159L59.9075 109.097L59.7154 109.629L59.1025 109.783L59.1278 110.411L58.5655 110.666L58.9506 111.235L58.438 111.952L57.0794 112.563L56.1495 112.546L55.775 112.965L55.3052 112.575L54.7054 113.15L55.8684 114.066L55.128 114.603L54.7342 114.097L54.1108 114.369L54.2444 113.871L53.8288 113.955L53.7414 112.969L52.1279 113.656L51.5516 113.247L51.315 112.421L49.3609 112.185L48.3691 112.571L49.2911 112.979L49.0318 114.28L49.4936 113.948L49.6657 114.193L49.2291 114.348L49.2684 114.744L47.8792 115.202L48.0032 115.827L47.151 116.444L46.4097 115.612L45.513 115.718L45.5122 116.313L44.9752 116.676L44.3133 118.128L42.7845 117.999L41.1491 116.829L39.9573 116.993L39.5748 117.606L40.145 117.916L39.3635 117.896L39.2562 116.647L36.8795 117.414L36.0832 117.212L35.9243 118.184L35.1446 117.93L34.46 118.663L35.0634 119.786L34.6801 119.783L33.8803 122.568L33.2149 123.072L33.2534 124.166L32.8281 124.277L32.6745 123.829L32.5749 123.862L32.2623 123.83L32.1733 124.583L31.6084 124.602L31.6442 125.443L29.9756 125.548L28.5524 124.777L28.0765 124.047L26.7136 124.245L27.3964 123.61L27.2767 122.908L27.6504 121.129L28.7838 121.134L29.5574 119.615L30.159 120.232L31.2093 120.129L30.9692 118.854L31.6136 118.954L31.4975 117.672L32.4667 117.274L32.4178 116.731L32.8936 116.436L32.5426 116.018L33.6454 115.324L33.1311 114.747L33.6384 114.428L33.7991 113.342L33.4 112.639L32.7635 113.463L31.8668 112.479L31.2128 112.659L31.0024 112.269L30.3956 112.559L29.952 112.251L30.5073 112.019L29.7355 111.592L30.3868 107.396L27.406 107.225L26.594 107.805L26.7895 106.68L26.1783 106.543L26.091 106.067L24.7202 106.319L24.3107 105.723L24.4155 105.323L25.1707 105.394L25.2441 104.908L24.797 104.47L25.4056 103.651L25.3201 102.447L23.9964 101.583L23.9353 102.221L22.9731 102.056L22.6186 102.838L22.2309 102.842L22.1925 101.706L22.843 101.459L22.6308 100.38L21.6284 101.386L21.1788 100.745L19.9232 100.676L19.7049 101.171L20.0952 102.076L19.1505 102.542L19.195 102.975L17.9953 103.397L17.9202 104.484L17.6793 103.944L17.0977 104.116L17.2165 103.64L16.8306 103.672L16.1242 104.056L16.6044 104.437L16.3215 104.585L15.8527 104.28L15.1297 104.791L14.4644 104.275L14.3299 105.371L13.8741 104.973L13.7938 105.483L13.187 105.557L13.3276 103.273L12.4361 103.231L12.726 102.555L11.5367 102.356L10.8155 102.732L10.5763 102.138L9.54426 102.473L9.24041 101.428L8.83265 102.06L8.71216 101.687L8.23456 102.09L8.20225 101.004L7.8172 101.336L7.93681 102.143L7.23046 102.287L7.93158 102.827L8.01104 104.071L6.70745 103.954L6.06395 104.369L5.44751 103.755L5.17423 104.484L4.82934 104.299L4.38753 102.946L5.28075 101.458L5.71906 101.381L5.61952 100.85L3.70473 99.0186L4.50715 98.2163L3.62964 97.0473L2.83771 96.9751L2.97916 96.4473L3.81213 96.3171L3.8977 95.8755L5.32702 96.1878L5.11659 97.5962L5.39775 98.4424L7.17807 98.6518L7.65742 99.6054L10.6942 98.979L11.4302 99.7795L11.3307 101.397L12.0999 101.376L12.1261 101.712L12.7757 101.159L12.4151 100.652L12.8342 100.036L11.8293 100.029L11.9707 99.309L10.9256 99.0151L12.1916 97.4959L12.0868 97.2109L11.2608 97.6358L11.3193 97.1018L11.8485 97.0033L12.086 96.3295L14.109 96.5996L14.033 94.3194L13.2734 94.3115L13.0473 93.6016L12.0109 93.3158L11.8162 93.877L12.5601 95.449L11.9768 95.829L11.4582 95.1077L11.5289 94.3661L10.0734 94.2377L10.1022 93.1979L9.20287 93.577L7.74474 93.073L7.00955 94.0221L6.8847 95.4243L6.34073 95.4982L5.87098 94.9282L3.82785 94.9176L3.59123 94.3124L4.05225 93.8998L2.75476 92.9102L2.82811 92.0824L3.37556 91.6426L3.89596 91.9073L3.93612 91.0461L4.47746 90.4189L2.59149 90.6045L1.81178 89.5718L1.30275 89.4838L0.579788 88.079L1.27218 85.5701L0.948248 84.7247L2.19858 84.2568L2.48584 81.2271L1.81789 81.4735L0.64615 81.1163L1.02596 80.2305L0.837361 79.1933L1.25211 78.8256L2.71024 80.0026L4.63113 80.3501L4.97602 79.9859L5.82034 79.9929L5.71294 80.4433L6.40447 80.5462L7.77878 78.2617L7.37801 77.8412L7.84602 77.7225L7.85474 76.8718L7.1737 76.3519L7.96477 75.6341L7.66789 75.13L7.07416 75.0508L6.96939 74.3401L6.09014 74.443L5.46586 72.2922L4.4242 71.2339L4.45214 70.941L5.45188 71.0615L5.50077 68.5192L6.45423 68.1577L7.08989 68.6855L7.25053 68.0407L5.7566 66.6068L6.13467 64.9204L5.37417 64.7559L6.17309 63.4707L7.58931 62.6843L9.5172 62.3579L14.2793 63.0608L16.0509 63.2341L17.0122 63.9044L18.0573 63.7126L19.5757 64.1173L21.1936 63.535L23.2804 64.2334L23.9091 63.418L24.4094 64.5123L25.2485 64.843L25.5453 64.4287L26.2552 64.4278L26.5355 63.4488L27.5946 62.9042L27.936 60.9584L29.0248 60.9998L30.6601 60.0128L33.4647 60.4807L34.5229 59.6705L36.2892 61.0464L37.4112 61.1036L38.5349 59.8887L38.5594 58.5675L39.0178 58.6369L39.1959 59.4551L39.8874 59.5492L39.7957 58.088L40.1625 57.6992L42.0895 56.8723L44.7517 57.4177L45.5209 56.9893L45.6414 51.8661L46.387 50.8491L49.3199 50.448L50.6104 49.5314L53.3677 48.9288L55.6859 47.6383L56.332 48.3852L57.275 48.2374L58.0102 49.3915L59.0353 49.3106L60.6759 47.341L61.074 46.0329L60.4052 45.2895L59.6482 45.0837L59.9756 44.2419L60.6392 43.1308L62.2475 42.7473L63.1294 41.6063L63.4786 42.2151L64.5919 42.2634L65.3079 43.3103L65.6344 44.935L66.3547 45.242L66.6167 46.0804L67.1056 45.3414L68.0722 45.9994L68.1421 46.4833L70.0874 47.0023L70.8418 46.5264L69.9363 45.8182L70.1267 44.972L70.5248 44.8787L70.4777 43.8724L68.7803 43.4572L68.7166 44.0457L66.3486 43.0279L66.9057 42.1975L66.5084 41.3838L67.0218 40.9817L67.4872 41.9907L67.957 42.1403L68.6144 41.5034L68.8685 40.4003L70.0394 39.8232L71.8031 40.7865L71.4914 41.411L73.0656 41.2298L75.0162 41.9749L75.4982 41.4928L75.7077 39.6649L76.4936 39.6719L76.3478 38.6127L77.9177 39.0262L78.9279 38.3726L81.0531 38.0137L81.3962 36.2948L82.9609 36.3379L84.0121 34.9841L84.873 35.6254L85.6737 35.5401L87.0952 33.8678L87.241 32.1295L87.6479 31.5472L87.2681 31.161L88.5149 29.2785L88.6144 28.544L92.375 26.5092L92.5654 26.1134L91.935 25.3278L92.7164 24.5053L95.4712 23.4277L96.8036 22.1619L99.2833 22.4372L99.595 23.0732L100.77 23.667L101.237 23.5386L101.232 22.3475L101.798 22.0836L101.938 22.5489L102.381 22.4979L102.447 20.5345L102.889 20.8679L103.028 20.5873L101.949 19.5088L102.437 19.1217L102.511 18.1497L103.15 17.9975L103.537 17.3738L102.466 17.1679L103.38 16.166L102.957 15.3787L105.017 12.9288L105.476 13.607L105.915 13.5647L106.043 14.908L106.474 14.8438L106.135 15.7718L107.329 16.1738L107.527 16.6022L106.89 17.3667L106.969 18.0748L107.812 18.8718L108.395 17.7564L110.374 16.8978L110.853 15.6671L110.541 15.1895L110.961 14.8095L111.797 15.3804L112.523 15.3232L112.654 16.2081L113.4 16.5072L114.945 15.8686L115.607 16.0454L115.696 15.0083L115.316 15.2035L114.912 14.7118L116.264 12.9067L115.225 12.714L115.123 12.3279L115.618 11.9698L114.778 11.932L114.843 10.9547L115.563 10.6627L117.061 8.37636L118.318 8.96046L118.379 9.4698L118.641 8.50479L119.495 8.67458L119.74 8.04384L121.142 7.84152L121.19 7.22485L121.874 7.24947L122.148 6.69529L120.966 5.38895L121.58 5.45846L120.949 4.80487L120.643 5.58162L120.21 4.17325L120.96 3.78267L122.103 4.04833L122.956 5.02653L122.828 3.98148L123.305 3.96829L123.366 3.56364L123.026 2.62501L123.28 2.46844L123.652 2.9461L123.867 2.72003L124.018 3.49415L123.651 3.45546L123.685 3.75984L124.341 3.86978L124.616 2.54412L125.207 3.00946L125.676 2.26612L125.491 1.64332L126.021 0.99852L127.369 3.65515L127.848 3.74489L127.529 4.26126L128.261 5.55879L128.887 5.76023L128.146 4.39231L129.014 3.8126L130.534 7.4879L131.806 7.91016L133.401 7.80195L134.402 8.91388L135.154 8.84524L135.673 8.31392L138.979 7.99987L139.048 6.55457L139.53 6.85807L139.697 6.54578L139.33 6.23613L139.991 6.34255L139.583 5.98366L140.177 6.17982L140.755 5.64674L140.502 5.17524L140.96 4.61664L140.493 3.70793L141.527 4.3404L141.852 3.57159L143.253 2.7174L143.647 3.72552L144.105 2.91532L144.869 2.96459L144.863 2.40774L144.234 2.4957L143.722 1.5782L144.99 1.61687L145.06 0.941284L145.738 1.04949L145.586 1.66174L146.047 2.12005L146.813 2.59509L143.558 6.37066L143.031 7.98839L141.421 9.52344L139.415 12.5451L135.202 16.5055L135.182 17.32L127.775 21.0877L125.094 22.928L124.307 24.2537L122.124 26.2849V26.9262L120.926 28.5641L118.53 31.1425L107.457 36.7962L103.085 40.197L101.791 41.8403L101.319 43.5996L100.902 43.8011L101.034 44.6403L102.049 45.5279L102.826 45.3106L102.619 47.4825L101.83 47.9311ZM102.399 47.8968L102.06 50.0714L101.402 49.1293L101.388 48.4282L102.399 47.8968Z" stroke="#F7F2F3" stroke-width="0.611194"/>
</svg>
