<svg width="109" height="60" viewBox="0 0 109 60" fill="none" xmlns="http://www.w3.org/2000/svg">
<path d="M85.1273 2.12957L85.639 2.94153L85.5892 3.68134L86.6955 5.23837L87.5983 5.22431L88.8809 4.17749L89.4231 4.78974L88.5736 6.58342L86.9993 6.81125L85.6363 8.1862L84.3354 8.54247L84.9911 9.05532L85.6215 10.4179L84.8977 11.478L85.2862 12.1386L86.7819 11.3662L88.5806 9.49341L90.209 9.38168L91.8426 8.50816L90.9694 10.2939L91.1546 10.8947L91.7256 10.7769L92.0661 12.5952L93.5015 14.8023L92.9532 15.9925L90.8839 16.6901L91.2741 17.7342L90.0675 18.7995L89.5716 18.65L89.6754 19.2816L88.7246 19.3537L88.1955 19.9079L89.0608 20.887L87.0639 22.422L88.089 22.9894L89.0232 22.8197L89.5436 23.8559L89.9723 23.7213L90.6202 22.2998L91.5693 22.3192L92.8371 21.3867L94.3904 21.3304L95.9708 22.2479L96.3968 23.241L97.82 23.3598L98.6679 22.9939L99.1664 23.8454L100.457 24.4445L102.213 23.3317L103.7 24.8016L105.676 25.2757L107.842 26.8513L107.166 26.9348L106.566 27.6306L106.716 28.5332L106.146 29.4146L107.348 29.5571L107.412 30.2037L108.109 30.5151L107.432 31.3024L107.631 33.1638L106.391 33.3063L106.163 32.468L105.209 32.8911L102.394 35.2971L102.284 36.197L101.043 36.2137L100.123 37.812L99.4668 37.9035L98.6495 38.8676L99.3821 40.7431L98.9097 42.1348L103.66 48.852L103.197 49.5514L102.505 49.1722L101.829 49.4212L100.24 48.2362L98.2479 47.6838L98.0235 47.1551L98.5107 46.7918L98.4208 46.1514L97.9938 46.0573L96.9085 44.3683L95.267 43.8264L95.0208 44.1396L93.4387 44.0604L91.7902 45.6148L90.8472 45.2339L86.5261 45.803L82.9096 47.6328L81.0777 50.5762L79.9985 51.2447L78.7325 51.2456L77.3223 53.9779L76.2729 53.5117L75.143 55.3388L73.7032 55.1338L71.8042 57.8247L69.4956 58.7273L68.309 58.1062L67.917 57.1008L68.4417 56.0337L67.8978 55.8076L67.779 54.7335L67.338 54.4432L68.24 53.9093L67.5389 50.7829L68.5028 51.0441L70.3373 49.5118L72.3324 48.8757L72.3682 47.2747L73.4002 46.1373L74.751 46.9431L78.7028 45.6614L79.6929 45.6104L80.305 46.2526L80.5328 45.6588L82.5795 44.0912L81.8373 42.696L81.6592 42.9309L81.3274 42.499L80.7232 42.5377L80.2884 43.3038L80.2081 42.5192L79.8195 43.0751L79.4903 42.8033L80.2255 41.2366L80.0745 40.2646L79.3166 39.9883L79.0302 39.2362L78.3527 38.814L78.6146 38.2853L78.1938 37.8023L78.5229 37.4768L77.8235 36.5866L78.3649 36.3605L78.2313 36.0254L79.011 34.9689L80.9144 33.3529L81.8312 31.6683L79.0608 31.4845L75.0557 31.8909L73.3959 33.4664L70.9904 34.2907L69.7505 33.6872L64.537 35.6832L61.4217 36.4133L61.0297 37.1575L60.2246 37.2701L59.5043 37.9228L58.288 37.9097L58.1623 38.273L54.0909 40.1722L53.5652 39.2345L52.4049 39.779L51.1344 39.2098L50.7328 39.4359L50.298 38.4524L49.5471 39.0744L50.3757 40.1784L50.4228 40.8979L48.5613 41.8172L46.8011 44.18L44.8933 45.5989L42.0006 48.845L42.4974 49.2118L42.672 50.124L41.5282 50.3853L39.7618 52.2608L36.354 52.9293L33.7695 52.4217L27.7633 53.3753L25.907 52.4015L25.8869 51.9819L25.0784 51.5086L21.1763 50.8744L20.8131 51.2852L20.9292 51.9239L19.8291 52.4499L17.5327 52.4208L16.4387 53.1818L15.5856 52.9909L14.1843 53.6709L11.1038 53.8477L11.0209 51.5077L9.74962 50.3333L9.55926 48.3268L10.4062 47.0645L9.85613 46.1777L10.9903 46.1267L11.337 45.7467L10.2071 44.9295L10.1277 43.4261L9.47458 41.7829L8.0243 42.1779L6.62816 41.7345L4.01486 41.9764L3.46741 41.3079L2.6877 41.68L1.21386 39.8142L1.38498 39.1263L1.04882 38.6072L2.2555 37.1065L2.54539 35.8811L2.33581 35.1431L1.79972 34.7287L1.19028 34.8431L0.796478 34.01L2.95312 33.9537L3.82364 34.8853L5.91916 34.946L6.58363 36.4661L7.6471 36.9182L8.83719 35.7817L10.1451 36.0069L12.9776 33.9387L13.9581 33.9608L14.9081 35.611L16.0746 35.2636L16.5688 34.7032L17.4472 35.0929L18.2959 34.3012L19.3811 34.7252L20.1914 33.5543L21.364 33.0864L22.6484 31.2346L21.2497 29.7119L21.6888 28.4038L23.7477 26.8151L24.2375 27.4432L25.4957 26.7658L26.7618 25.5765L27.4166 26.2213L28.027 25.5492L27.8418 24.7153L31.4121 24.0802L31.6417 22.6859L30.7485 21.8678L32.4537 20.5166L32.9898 19.2358L32.8912 18.5408L33.3993 18.3579L33.5678 17.6928L35.5551 16.9442L36.0772 17.4122L36.3863 16.7788L37.1678 17.3031L38.7438 17.3269L40.7817 16.668L41.5789 17.1017L42.837 16.2889L44.338 17.0331L45.714 14.8655L45.4189 14.3896L45.5953 13.4897L48.5238 11.1163L49.6126 8.40692L50.9467 7.06364L52.211 6.9704L52.4921 6.18133L53.5687 5.41249L55.8843 5.36848L57.1695 2.85436L58.6845 3.78505L59.8964 5.11248L60.2735 6.71791L61.6225 6.30534L64.3825 7.43133L63.9206 6.54197L65.7638 7.15511L66.1908 7.73218L68.5482 7.86677L68.8363 8.96109L71.4619 9.4546L72.2695 9.39478L72.7934 8.67872L73.037 7.22813L73.9599 7.47268L73.7931 5.68165L74.6724 5.59809L74.909 4.67706L75.6276 4.92953L78.1789 2.69074L78.5229 3.11212L80.0649 1.95358L81.4593 2.13831L83.7154 0.441406L85.1273 2.12957Z" fill="#574D4F" stroke="#F7F2F3" stroke-width="0.611194"/>
</svg>
