<svg width="92" height="68" viewBox="0 0 92 68" fill="none" xmlns="http://www.w3.org/2000/svg">
<path d="M15.0992 1.08446L15.7061 1.0203L15.6703 1.65893L16.711 1.99498L16.7608 2.55357L17.5946 2.35652L18.3194 3.75433L24.2794 4.70263L25.5777 7.24579L25.2739 9.70185L24.6967 10.6933L26.7818 11.6108L27.0716 11.3046L27.4541 11.7568L28.115 11.2686L29.244 12.2907L30.538 12.4825L30.8314 12.8986L30.6349 13.3921L32.3279 13.9938L31.6329 14.636L34.7998 14.4064L34.4601 15.5289L35.0661 16.6205L37.3336 16.975L38.673 15.9546L39.5147 16.1437L42.823 14.2964L44.6522 15.8623L44.6138 18.7599L46.1706 19.8208L46.7827 19.6774L46.7608 20.5193L48.5569 19.6018L48.7804 18.8268L50.0264 18.5119L52.038 19.2851L51.9953 19.7452L53.0203 19.5771L53.4787 20.1164L54.117 19.5288L55.4826 19.4778L59.4117 21.1404L59.9338 21.984L62.871 23.5155L63.4962 22.7704L64.7404 23.1742L65.8493 22.7036L65.8065 22.211L66.5042 22.1388L66.5565 21.582L68.0662 21.2688L68.6067 20.1393L69.0991 20.1701L69.458 22.9429L70.758 23.8877L72.4703 23.7434L72.6467 24.5052L73.4979 24.5562L74.0192 25.0383L74.5291 23.8067L76.3156 23.1461L78.8634 24.3618L79.7025 24.104L80.1757 23.2472L81.1981 23.812L81.7962 23.7179L82.2223 22.5558L83.2998 23.2252L84.021 22.1978L84.7282 23.5982L85.9131 24.1243L86.0266 24.6864L86.6151 24.6881L86.6998 24.1339L87.8008 23.1988L87.9606 21.1905L88.6783 21.6946L89.0965 21.1545L90.2473 20.8554L90.2866 21.2574L89.293 22.1124L89.5628 22.4924L90.1565 22.4054L90.2071 23.0009L90.9179 23.52L90.2333 24.0882L90.3643 24.4682L90.9117 24.3495L91.3562 24.9063L89.9373 26.3824L88.6617 26.9718L87.297 28.5456L86.705 28.5051L86.2597 29.2564L85.3639 29.0294L85.4381 30.4703L84.8854 30.407L84.7614 30.7228L84.4287 30.2733L83.1347 31.2216L82.9121 33.4428L82.4336 33.9178L82.782 34.7456L84.3912 35.1468L83.8883 35.6183L84.3842 35.8989L84.1642 36.8155L84.7841 36.7838L85.3071 37.733L86.9084 38.4262L86.6709 39.5187L87.0132 39.5997L86.4055 40.5321L86.6744 41.5517L87.352 42.2176L87.3074 42.6926L86.5251 42.5783L86.1584 42.0865L86.099 42.4182L85.7777 42.244L85.7664 41.7936L84.6697 41.5622L84.1755 42.2097L83.814 41.9722L83.5259 42.9988L82.9846 43.0154L82.5253 43.6321L82.0258 43.4201L81.619 44.2232L81.7403 44.7722L82.1629 44.8883L82.0739 45.6949L83.3993 46.8025L82.7837 47.6821L83.0369 48.3921L82.1402 47.9619L82.0617 47.442L80.6812 47.2353L80.249 46.1471L78.838 46.1216L78.3473 45.3721L77.7501 45.7258L77.6095 46.7251L76.5452 46.4506L76.8045 47.113L76.3837 47.5502L76.3741 48.4853L74.9054 47.8203L74.5047 48.2751L73.656 47.91L73.064 50.6177L72.3227 50.2825L71.6068 50.6115L70.4263 51.931L70.6332 54.7319L70.5031 55.2808L69.8352 55.3389L69.1786 56.011L69.5095 56.4306L68.6652 60.3557L66.4649 59.6291L65.8799 60.763L66.1182 61.7272L65.4826 61.151L65.0844 61.4905L64.7631 61.1325L64.0917 61.2064L64.1921 60.6038L63.6673 60.0944L63.1871 60.1305L62.8352 60.9803L61.6801 61.2864L60.4839 60.3909L59.4562 61.8019L58.707 62.1502L58.3945 64.016L57.978 64.0785L57.7291 65.149L57.0594 64.937L55.8746 63.6395L54.5658 63.2709L55.1744 62.3358L55.0207 61.3339L55.3647 60.814L54.2916 60.9793L53.4368 60.2562L53.0273 60.792L51.9001 60.4216L51.7377 58.3737L51.0453 57.5451L50.1774 57.6454L50.3878 56.8739L48.5551 57.831L47.2288 56.456L45.3917 56.4833L44.6513 56.0047L43.9179 58.2074L43.057 58.7388L43.3338 60.857L41.7228 60.4322L41.5718 61.1939L40.9964 61.1931L40.6576 62.0129L40.0761 61.4851L36.3478 61.9689L36.3373 62.5619L33.938 63.2533L34.2803 63.9254L32.8186 64.9361L32.3803 64.7839L32.5759 63.7151L32.1577 64.213L31.0086 64.2711L30.6087 65.0003L29.32 65.0778L28.9934 63.2533L28.157 63.46L28.1247 62.2733L27.4427 61.9118L25.3149 63.3835L24.9369 64.6432L23.3687 64.2685L23.2456 64.8394L22.4379 64.9942L22.5104 65.734L21.9263 66.787L21.2129 65.7498L20.5354 65.8959L20.6279 65.3373L19.891 64.7232L19.0441 64.6001L18.6634 64.0442L18.9436 63.8885L18.2635 63.4935L18.2818 62.8909L18.8703 62.4484L18.26 61.1755L17.826 61.2107L18.0251 61.4588L17.606 61.8845L17.2009 61.4332L16.8813 61.7957L16.3478 61.3893L16.0658 61.5546L16.1828 62.2936L15.576 61.6919L15.466 62.4062L14.9133 62.8777L13.7616 60.2431L12.7645 59.724L11.5997 61.5388L10.4943 61.8414L7.72824 62.4035L3.73452 61.9593L4.52382 59.9624L3.72229 59.4487L4.0183 58.854L3.41583 58.3588L3.39923 57.7131L2.91028 57.8046L1.69749 56.778L1.76298 55.7919L1.09766 55.0345L0.912551 52.2098L0.44281 52.0717L1.15879 49.9103L0.756273 48.7535L1.01732 48.3982L1.72368 48.2346L2.10786 47.3786L3.04039 47.324L4.48716 45.9939L4.93857 46.1866L6.00291 45.7538L6.51196 44.9744L7.22095 44.9067L6.96949 44.7624L7.32311 44.4035L7.49511 44.6049L8.01551 44.1097L8.55336 44.5697L9.23789 44.1017L9.14708 43.683L9.95123 43.5757L9.43696 42.9872L10.1844 42.8288L11.3893 41.1082L14.3038 39.5028L14.1781 38.3231L14.6312 37.8191L15.6144 37.6035L16.457 38.1639L16.6141 38.85L18.1255 39.0154L18.0888 38.6979L18.728 38.8034L18.9611 37.3273L19.8508 37.2438L20.2507 38.2439L21.1082 37.9387L21.832 38.6829L22.4938 38.551L22.6999 37.6942L22.6178 38.3785L23.0002 38.5571L23.0605 37.4927L24.4304 37.6572L23.8812 37.0001L24.2409 36.3201L23.0762 35.4369L22.5366 35.502L22.5672 34.6188L20.6419 34.3197L20.3677 33.5272L19.3278 32.9571L18.322 33.2087L16.594 32.117L15.9436 32.3017L15.9619 31.6095L14.5692 30.1606L13.8018 30.0964L13.2368 29.1692L13.1155 27.2189L14.3553 27.6165L14.97 26.7852L15.817 27.1125L16.2265 25.6592L16.037 24.4954L14.2217 24.2808L13.1059 22.9718L12.5759 23.2551L11.1204 22.9349L11.1186 21.5467L12.2214 21.7412L12.4336 21.2635L13.7791 21.0268L14.4147 19.8771L14.4007 18.9913L17.881 19.8824L20.4804 19.3132L20.2577 18.4107L18.8581 18.1433L18.3534 16.7287L17.427 17.2205L17.1825 17.0102L17.0114 16.6496L17.5169 15.5904L17.3126 14.4873L16.7302 14.3114L15.9933 15.06L15.3123 14.6254L15.4799 13.9701L14.7448 13.6982L14.5509 14.1847L13.8559 13.8856L13.7764 13.0613L13.36 12.8379L13.7572 12.4429L13.6507 10.7416L12.7357 10.2499L13.2831 9.69744L11.797 9.74844L12.5165 7.53692L12.0721 6.8235L11.0392 6.3212L11.5456 5.39929L11.3814 4.96298L10.2472 5.25415L9.7775 5.01575L10.318 4.43429L11.2304 3.74726L10.6244 3.58979L10.5336 2.83503L11.6844 2.40398L13.442 2.72947L14.688 1.57709L14.7299 1.01233L15.0992 1.08446Z" fill="#574D4F"/>
<path d="M87.9483 21.1157L87.9632 21.1852M15.0992 1.08446L15.7061 1.0203L15.6703 1.65893L16.711 1.99498L16.7608 2.55357L17.5946 2.35652L18.3194 3.75433L24.2794 4.70263L25.5777 7.24579L25.2739 9.70185L24.6967 10.6933L26.7818 11.6108L27.0716 11.3046L27.4541 11.7568L28.115 11.2686L29.244 12.2907L30.538 12.4825L30.8314 12.8986L30.6349 13.3921L32.3279 13.9938L31.6329 14.636L34.7998 14.4064L34.4601 15.5289L35.0661 16.6205L37.3336 16.975L38.673 15.9546L39.5147 16.1437L42.823 14.2964L44.6522 15.8623L44.6138 18.7599L46.1706 19.8208L46.7827 19.6774L46.7608 20.5193L48.5569 19.6018L48.7804 18.8268L50.0264 18.5119L52.038 19.2851L51.9953 19.7452L53.0203 19.5771L53.4787 20.1164L54.117 19.5288L55.4826 19.4778L59.4117 21.1404L59.9338 21.984L62.871 23.5155L63.4962 22.7704L64.7404 23.1742L65.8493 22.7036L65.8065 22.211L66.5042 22.1388L66.5565 21.582L68.0662 21.2688L68.6067 20.1393L69.0991 20.1701L69.458 22.9429L70.758 23.8877L72.4703 23.7434L72.6467 24.5052L73.4979 24.5562L74.0192 25.0383L74.5291 23.8067L76.3156 23.1461L78.8634 24.3618L79.7025 24.104L80.1757 23.2472L81.1981 23.812L81.7962 23.7179L82.2223 22.5558L83.2998 23.2252L84.021 22.1978L84.7282 23.5982L85.9131 24.1243L86.0265 24.6864L86.615 24.6881L86.6998 24.1339L87.8008 23.1988L87.9606 21.1905L88.6783 21.6946L89.0965 21.1545L90.2473 20.8554L90.2866 21.2574L89.293 22.1124L89.5628 22.4924L90.1565 22.4054L90.2071 23.0009L90.9179 23.52L90.2333 24.0882L90.3643 24.4682L90.9117 24.3495L91.3562 24.9063L89.9373 26.3824L88.6617 26.9718L87.297 28.5456L86.705 28.5051L86.2597 29.2564L85.3639 29.0294L85.4381 30.4703L84.8854 30.407L84.7614 30.7228L84.4287 30.2733L83.1347 31.2216L82.9121 33.4428L82.4336 33.9178L82.782 34.7456L84.3912 35.1468L83.8883 35.6183L84.3842 35.8989L84.1642 36.8155L84.7841 36.7838L85.3071 37.733L86.9084 38.4262L86.6709 39.5187L87.0132 39.5997L86.4055 40.5321L86.6744 41.5517L87.352 42.2176L87.3074 42.6926L86.5251 42.5783L86.1584 42.0865L86.099 42.4182L85.7777 42.244L85.7664 41.7936L84.6697 41.5622L84.1755 42.2097L83.814 41.9722L83.5259 42.9988L82.9846 43.0154L82.5253 43.6321L82.0258 43.4201L81.619 44.2232L81.7403 44.7722L82.1629 44.8883L82.0739 45.6949L83.3993 46.8025L82.7837 47.6821L83.037 48.3921L82.1402 47.9619L82.0617 47.442L80.6812 47.2353L80.249 46.1471L78.838 46.1216L78.3473 45.3721L77.7501 45.7258L77.6095 46.7251L76.5452 46.4506L76.8045 47.113L76.3837 47.5502L76.3741 48.4853L74.9054 47.8203L74.5047 48.2751L73.656 47.91L73.064 50.6177L72.3227 50.2825L71.6067 50.6115L70.4263 51.931L70.6332 54.7319L70.5031 55.2808L69.8352 55.3389L69.1786 56.011L69.5095 56.4306L68.6652 60.3557L66.4649 59.6291L65.8799 60.763L66.1182 61.7272L65.4826 61.151L65.0844 61.4905L64.7631 61.1325L64.0917 61.2064L64.1921 60.6038L63.6673 60.0944L63.1871 60.1305L62.8352 60.9803L61.6801 61.2864L60.4839 60.3909L59.4562 61.8019L58.707 62.1502L58.3945 64.016L57.978 64.0785L57.7291 65.149L57.0594 64.937L55.8746 63.6395L54.5658 63.2709L55.1744 62.3358L55.0207 61.3339L55.3647 60.814L54.2916 60.9793L53.4368 60.2562L53.0273 60.792L51.9001 60.4216L51.7377 58.3737L51.0453 57.5451L50.1774 57.6454L50.3878 56.8739L48.5551 57.831L47.2288 56.456L45.3917 56.4833L44.6513 56.0047L43.9179 58.2074L43.057 58.7388L43.3338 60.857L41.7228 60.4322L41.5718 61.1939L40.9964 61.1931L40.6576 62.0129L40.0761 61.4851L36.3478 61.9689L36.3373 62.5619L33.938 63.2533L34.2803 63.9254L32.8186 64.9361L32.3803 64.7839L32.5759 63.7151L32.1577 64.213L31.0086 64.2711L30.6087 65.0003L29.32 65.0778L28.9934 63.2533L28.157 63.46L28.1247 62.2733L27.4427 61.9118L25.3149 63.3835L24.9369 64.6432L23.3687 64.2685L23.2456 64.8394L22.4379 64.9942L22.5104 65.734L21.9263 66.787L21.2129 65.7498L20.5354 65.8959L20.6279 65.3373L19.891 64.7232L19.0441 64.6001L18.6634 64.0442L18.9436 63.8885L18.2635 63.4935L18.2818 62.8909L18.8703 62.4484L18.26 61.1755L17.826 61.2107L18.0251 61.4588L17.606 61.8845L17.2009 61.4332L16.8813 61.7957L16.3478 61.3893L16.0658 61.5546L16.1828 62.2936L15.576 61.6919L15.466 62.4062L14.9133 62.8777L13.7616 60.2431L12.7645 59.724L11.5997 61.5388L10.4943 61.8414L7.72824 62.4035L3.73452 61.9593L4.52382 59.9624L3.72229 59.4487L4.0183 58.854L3.41583 58.3588L3.39923 57.7131L2.91028 57.8046L1.69749 56.778L1.76298 55.7919L1.09766 55.0345L0.912551 52.2098L0.44281 52.0717L1.15879 49.9103L0.756273 48.7535L1.01732 48.3982L1.72368 48.2346L2.10786 47.3786L3.04039 47.324L4.48716 45.9939L4.93857 46.1866L6.00291 45.7538L6.51196 44.9744L7.22095 44.9067L6.96949 44.7624L7.32311 44.4035L7.49511 44.6049L8.01551 44.1097L8.55336 44.5697L9.23789 44.1017L9.14708 43.683L9.95123 43.5757L9.43696 42.9872L10.1844 42.8288L11.3893 41.1082L14.3038 39.5028L14.1781 38.3231L14.6312 37.8191L15.6144 37.6035L16.457 38.1639L16.6141 38.85L18.1255 39.0154L18.0888 38.6979L18.728 38.8034L18.9611 37.3273L19.8508 37.2438L20.2507 38.2439L21.1082 37.9387L21.832 38.6829L22.4938 38.551L22.6999 37.6942L22.6178 38.3785L23.0002 38.5571L23.0605 37.4927L24.4304 37.6572L23.8812 37.0001L24.2409 36.3201L23.0762 35.4369L22.5366 35.502L22.5672 34.6188L20.6419 34.3197L20.3677 33.5272L19.3278 32.9571L18.322 33.2087L16.594 32.117L15.9436 32.3017L15.9619 31.6095L14.5692 30.1606L13.8018 30.0964L13.2368 29.1692L13.1155 27.2189L14.3553 27.6165L14.97 26.7852L15.817 27.1125L16.2265 25.6592L16.037 24.4954L14.2217 24.2808L13.1059 22.9718L12.5759 23.2551L11.1204 22.9349L11.1186 21.5467L12.2214 21.7412L12.4336 21.2635L13.7791 21.0268L14.4147 19.8771L14.4007 18.9913L17.881 19.8824L20.4804 19.3132L20.2577 18.4107L18.8581 18.1433L18.3534 16.7287L17.427 17.2205L17.1825 17.0102L17.0114 16.6496L17.5169 15.5904L17.3126 14.4873L16.7303 14.3114L15.9933 15.06L15.3123 14.6254L15.4799 13.9701L14.7448 13.6982L14.5509 14.1847L13.8559 13.8856L13.7764 13.0613L13.36 12.8379L13.7572 12.4429L13.6507 10.7416L12.7357 10.2499L13.2831 9.69744L11.797 9.74844L12.5165 7.53692L12.0721 6.8235L11.0392 6.3212L11.5456 5.39929L11.3814 4.96298L10.2472 5.25415L9.7775 5.01575L10.318 4.43429L11.2304 3.74726L10.6244 3.58979L10.5336 2.83503L11.6844 2.40398L13.442 2.72947L14.688 1.57709L14.7299 1.01233L15.0992 1.08446Z" stroke="#F7F2F3" stroke-width="0.611194"/>
</svg>
