<svg width="78" height="125" viewBox="0 0 78 125" fill="none" xmlns="http://www.w3.org/2000/svg">
<path d="M57.5467 0.516602L59.4074 0.869341L59.8142 1.69712L60.8952 1.98303L61.5544 4.58776L62.1638 4.86485L61.8905 5.29414L64.3441 6.14127L64.9649 7.45992L64.6968 8.90435L65.7961 10.5643L68.7272 11.2927L68.7752 10.106L70.0386 9.90807L70.325 11.6674L69.3532 13.4417L69.286 14.9223L70.0299 15.4887L70.704 15.0656L71.1947 15.9444L70.5267 19.7614L72.2765 20.8944L72.6152 23.2343L73.3819 22.0441L73.8787 22.9845L74.8714 22.7373L75.0024 23.2863L76.6832 23.0118L77.0211 23.734L76.671 25.2101L75.9332 25.3086L75.1247 27.2184L74.5571 27.2263L74.0306 27.7787L73.9433 29.0938L72.6502 29.7782L71.3798 29.736L70.0029 31.0643L69.9566 32.0302L69.5471 32.0064L69.4737 32.3996L70.6708 33.1544L69.988 35.0642L67.3712 35.5374L65.3927 37.5352L64.2995 37.4824L63.436 37.8958L61.853 40.2833L62.6056 41.0407L61.4732 41.2412L61.4138 43.0552L61.7465 43.6736L62.6083 44.095L62.0792 44.8638L62.3166 45.4206L61.3422 45.6511L61.44 46.4006L60.607 45.9942L60.1722 46.6214L60.4822 47.4333L59.3052 48.7449L60.49 49.7179L59.9085 50.119L59.6981 49.2508L58.5919 49.9703L57.7493 52.2777L58.0348 53.292L58.8302 54.1682L58.9926 55.171L58.4836 55.3381L56.5688 54.6485L56.278 55.88L56.6517 56.4052L55.6241 56.9057L55.108 59.353L53.8237 60.0295L52.3751 59.6794L50.8297 58.5683L49.4266 59.0873L48.2059 58.9009L47.7737 59.2791L47.1058 58.8771L44.9797 59.0803L45.1456 60.0136L44.4934 60.6153L44.73 61.2936L43.4622 63.1594L42.2328 63.9036L41.7456 65.4641L40.9502 65.4123L40.6926 64.7076L39.6902 64.288L39.4807 66.7432L40.0858 69.3744L39.2781 70.7475L40.3102 71.6078L40.449 72.7277L40.8506 72.3221L41.1999 73.2502L40.5529 75.0131L41.2008 76.0388L40.7598 76.4179L40.9152 77.6134L40.2814 78.7385L40.4996 80.395L44.2916 81.8359L44.9029 81.5553L46.2868 81.7462L46.1593 83.634L46.4701 84.0721L46.1994 84.8462L45.1578 84.9561L44.0489 86.0135L43.7966 85.0142L44.2035 84.1943L41.4409 83.4448L40.4621 83.8583L39.5601 84.8664L37.5711 81.594L36.6177 81.9837L34.4139 80.5841L33.8018 81.3609L32.2834 79.5637L30.9161 80.8542L30.3817 82.5291L30.607 83.3472L32.631 84.3843L32.9924 85.5323L34.4488 85.7786L34.0419 87.3181L34.1982 90.5315L33.7651 91.2458L35.0382 91.0901L35.5367 92.7589L36.7015 92.8811L36.3959 93.8831L35.9296 93.9614L36.7033 94.7804L36.1287 95.8316L36.6229 97.8989L36.2754 98.5261L37.0062 98.7003L37.2324 99.2219L36.9032 99.8095L37.4699 100.694L37.7335 102.709L36.5129 103.002L36.3007 105.02L35.7149 105.664L34.8435 105.699L34.7919 106.544L33.9721 106.414L32.7645 106.96L32.3943 108.153L31.2601 107.737L31.3151 108.305L32.5244 108.967L32.3847 109.499L31.6853 109.401L31.4697 110.092L30.7589 110.389L29.0074 112.352L28.6931 113.624L27.1058 113.741L27.1171 114.285L25.9235 114.474L24.7273 115.287L24.3039 116.738L24.6296 117.248L24.3746 118.498L23.7389 119.728L23.8018 120.854L23.0692 122.664L22.2764 122.487L22.114 123.997L19.7208 123.891L17.9946 123.112L16.4229 124.388L15.6712 124.322L14.0541 118.717L14.5972 117.04L12.5558 117.722L12.3035 116.472L12.6562 116.286L11.963 115.769L11.3841 117.076L10.2263 116.971L10.2027 116.063L11.2051 115.384L10.4097 114.456L9.89192 112.9L10.0796 112.397L9.43001 112.197L9.57409 111.875L8.69485 111.176L8.36393 110.277L5.63624 108.167L3.04828 108.972L1.68968 106.431L1.22604 105.623L1.8547 105.525L3.16964 104.382L1.69231 102.354L1.69317 101.221L2.68768 99.5254L2.73744 98.2349L3.86728 97.3147L3.80616 96.3427L4.78757 95.9178L5.49305 94.4822L7.17907 93.2049L7.9518 95.0232L9.08076 94.6484L9.38549 95.4824L10.4944 95.4191L12.245 93.9817L11.2025 92.7044L13.105 91.947L12.8676 90.9107L12.252 90.7145L11.9272 90.0645L10.8087 89.9545L9.97836 89.176L8.80572 89.1003L8.96989 87.546L6.66392 85.9441L6.71458 85.075L5.37519 84.9703L5.53845 85.9872L5.06959 85.5887L4.01397 85.5561L4.06635 85.1339L4.68978 85.25L5.89295 84.1117L5.62228 83.5249L4.25146 83.3886L4.22614 82.8713L4.90979 82.4781L5.58212 82.9628L6.31118 82.903L6.77133 81.806L6.78268 80.2763L6.67703 79.4159L5.90257 78.8494L3.99825 78.7491L3.85505 78.3832L4.36671 77.8484L3.79918 76.8438L6.13655 76.2992L6.70759 75.5726L8.09151 75.0492L7.51086 73.8397L8.17445 69.7694L7.16948 69.6022L6.15664 70.1362L5.60219 69.5108L6.07806 68.7762L7.40348 68.2088L6.77133 66.6087L6.7041 63.3081L5.12722 63.3433L4.54482 61.8241L4.97702 61.2928L4.72034 60.107L5.15864 58.6203L8.41195 57.102L9.09997 56.1572L8.8005 55.5185L10.1469 52.7405L9.76357 50.4824L9.93295 48.0193L10.38 47.1097L11.6268 47.3164L12.0014 46.186L12.0904 43.605L11.7595 43.1872L12.259 43.1063L13.4482 39.9808L14.1738 40.1022L14.4095 41.1824L15.0617 41.12L15.1456 40.4206L14.5448 40.0696L15.3665 39.7125L15.4328 37.8045L16.6255 37.4578L17.1581 36.5148L17.0883 33.611L18.3692 32.639L19.0694 33.4016L20.1128 32.4542L20.6332 32.8052L20.9798 31.9616L22.0005 32.3381L22.3262 33.6066L22.8352 32.8545L23.2666 33.0903L23.0841 32.5633L23.8481 32.5765L24.5649 31.6511L26.333 31.6705L26.4753 31.1691L26.9346 31.0767L27.0778 29.8267L28.0007 29.4765L28.2915 28.9496L28.6128 29.5082L29.0188 29.1994L28.7237 27.9512L29.4126 27.1542L28.9847 25.8101L29.1402 25.0315L30.7301 24.6858L30.7965 24.2064L32.2633 23.3689L31.8652 21.7011L32.2241 20.9683L33.7957 20.9225L34.5824 20.1915L35.4739 20.451L36.1165 19.6945L35.9593 17.9835L36.8185 16.8496L36.753 16.035L35.8746 15.3084L35.3822 15.428L35.1561 14.5941L34.1912 14.9891L33.6211 14.7885L33.6481 14.0795L32.9191 14.2862L31.8268 11.9111L30.1966 12.3254L29.7845 11.6366L28.5307 11.2047L27.7458 12.0853L27.0411 11.9208L26.5601 12.7441L26.1732 12.4143L26.1488 11.5434L25.6258 11.4545L25.4913 10.7816L26.0938 10.5538L26.2867 9.33537L26.8325 9.34856L27.6401 8.12756L27.3983 7.47572L26.7696 7.13266L26.6028 5.93804L26.0161 5.47973L26.237 4.41269L27.1704 4.0397L28.2923 5.37416L28.2207 5.74539L29.3829 6.31718L30.6673 6.06823L31.8285 5.09355L32.4546 5.49646L33.3688 5.2906L34.1851 6.14303L36.3234 6.15534L37.0822 5.4938L36.9975 5.91518L37.4891 6.4166L38.0217 6.11662L39.355 6.4817L41.7631 6.32686L42.7907 6.87051L43.3076 6.67171L42.9942 6.07265L44.0655 6.09727L45.273 5.42343L45.3551 4.39508L47.0289 4.10656L48.1195 3.28933L50.5145 5.03549L53.2168 4.98974L55.0976 4.12942L55.5821 2.7615L56.6788 2.0824L56.9163 1.08658L57.5467 0.516602Z" fill="#574D4F" stroke="#F7F2F3" stroke-width="0.611194"/>
</svg>
