<svg width="11" height="11" viewBox="0 0 11 11" fill="none" xmlns="http://www.w3.org/2000/svg">
<path d="M7.38298 0.95656L7.93918 1.61631L7.56635 2.45289L8.07363 2.61299L9.17465 4.18322L9.87928 4.11197L9.65488 5.60039L10.1115 6.34636L9.33706 7.22517L10.1395 8.42944L8.40194 8.93789L8.09284 9.36718L8.36526 10.0991L6.99706 10.524L6.12917 9.8167L5.93533 8.74436L5.29183 8.19368L4.85876 8.29925L4.07818 7.72482L4.06857 8.31596L3.39102 8.04238L1.76262 8.42768L0.999506 7.42837L0.951477 6.71054L1.31384 6.69115L1.73643 5.74638L2.75887 5.7455L2.45938 5.33645L3.13694 4.33186L2.91254 1.92153L4.54355 1.58548L5.35295 0.586182L6.31689 0.98643L6.51159 1.48258L7.38298 0.95656Z" fill="#574D4F" stroke="#F7F2F3" stroke-width="0.611194"/>
</svg>
