<svg width="7" height="8" viewBox="0 0 7 8" fill="none" xmlns="http://www.w3.org/2000/svg">
<path d="M5.80981 6.17948L5.25362 7.52627L4.40669 6.91403L2.96514 6.62548L2.82195 7.23775L2.04311 6.40469L2.17583 5.92613L1.6598 6.35014L1.36643 6.00796L1.61265 5.21799L1.31579 4.41749L0.478455 3.1226L0.868744 2.83493L1.5655 3.25895L1.68163 2.86046L2.23083 2.88332L2.21861 2.36695L2.66391 2.8798L2.77916 2.25789L3.51783 2.18315L3.81906 1.52161L3.91947 2.60977L4.80658 2.37137L5.12527 2.97045L4.74808 2.89214L3.87495 4.03131L3.26113 4.07621L3.36328 5.5048L3.56498 5.16701L4.13951 5.50304L4.59964 5.18812L4.52019 4.52218L5.69281 4.70955L6.02896 5.04561L5.43786 5.8294L5.80981 6.17948Z" fill="#574D4F" stroke="#F7F2F3" stroke-width="0.611194"/>
</svg>
