<svg width="117" height="92" viewBox="0 0 117 92" fill="none" xmlns="http://www.w3.org/2000/svg">
<path d="M27.2173 45.2451L27.7552 45.8662L27.3797 46.2945L26.4961 45.6902L27.2173 45.2451ZM18.2459 44.8862L18.4284 45.1721L17.2959 46.0087L17.4531 45.2055L18.2459 44.8862ZM34.1884 42.5955L34.5185 43.0969L33.2542 43.4602L33.386 42.8981L34.1884 42.5955ZM7.67049 28.2682L8.65538 28.6112L8.70603 29.11L7.92894 29.3203L7.9595 29.6352L7.30465 29.1144L7.84774 28.9147L7.67049 28.2682ZM8.23366 27.0595L8.76191 27.4641L8.75143 27.9911L8.02498 27.4976L7.84686 27.0991L8.23366 27.0595ZM6.1102 24.943L6.51271 25.4312L6.30927 26.4903L5.84215 26.1903L5.9085 25.4804L5.17245 26.1464L5.01005 25.908L6.1102 24.943ZM6.27959 22.618L6.26387 23.3288L5.33486 24.3993L5.42653 23.4114L6.27959 22.618ZM5.80635 22.0576L5.99407 22.5344L5.51734 22.8229L5.41082 22.2292L5.80635 22.0576ZM4.01991 18.4527L4.74112 18.8582L5.25889 18.6576L4.60404 21.4682L3.22274 22.8898L2.48145 22.7182L2.81674 22.552L2.46137 22.2071L1.89296 22.4297L2.04052 22.7411L1.51315 22.7579L1.59959 22.4192L1.08618 22.6241L0.873138 22.0682L1.20842 21.6028L2.39588 21.5632L3.49254 20.0801L4.01991 18.4527ZM3.30744 18.5776L3.39562 19.869L2.5871 20.4504L2.58186 18.7482L3.30744 18.5776ZM6.54327 17.9354L6.91435 19.4634L5.46233 19.7687L5.81246 19.0746L5.65442 18.4245L6.54327 17.9354ZM4.50887 17.3012L5.00918 17.3144L5.26413 18.3462L4.18144 18.2732L4.05397 17.8149L4.50887 17.3012ZM5.54528 15.848L5.5479 17.1455L4.3648 17.0223L3.86712 17.6346L3.9195 16.6423L5.54528 15.848ZM7.20162 15.7996L7.61024 16.2157L8.09832 16.3362L6.91959 17.4235L6.44199 17.2282L6.49176 16.7927L7.29504 16.199L7.20162 15.7996ZM6.27959 14.6965L6.94491 16.0653L5.57409 17.5853L6.03773 15.9271L5.80111 15.5972L5.29469 15.7934L5.6553 14.9313L6.27959 14.6965ZM5.32962 14.641L4.96377 15.8541L3.7702 16.5279L3.63923 18.1685L3.3345 18.4131L3.02018 18.063L2.32429 18.6972L2.34437 20.7196L1.8266 20.9369L0.989265 19.9358L1.75151 19.0588L1.36035 17.8633L1.75675 17.836L2.53297 16.2561L3.58422 16.2007L4.04611 14.999L4.7062 15.2436L5.32962 14.641ZM54.2592 0.867877L57.743 2.33956L58.7165 1.42118L59.3024 2.05631L61.2259 1.0051L63.5712 1.06935L64.3928 1.82324L66.9048 1.07198L67.1388 2.05285L67.991 2.40823L68.3219 0.977871L69.1191 1.13532L69.5591 1.95343L71.5385 0.360352L72.1375 0.537147L72.1314 1.43003L73.6026 2.20063L74.4295 2.23932L74.7831 1.83025L76.3381 2.31409L77.0462 2.12759L76.5381 2.75742L75.6833 2.49267L75.1664 2.89204L75.9732 3.73213L77.1213 3.44886L77.64 4.49482L78.6668 4.4192L78.5603 5.29974L79.0719 6.37384L79.8586 6.31838L79.7276 5.50555L80.5327 4.36726L81.3351 5.0587L83.3223 5.36657L83.2534 6.13013L83.9676 7.29658L86.4455 7.20511L87.4654 7.99857L88.7 7.24204L88.1857 6.84531L88.8624 5.09739L89.0903 4.85989L89.7896 5.2056L90.5816 4.61182L90.8365 5.98851L90.4096 6.6298L91.9637 7.51036L92.7129 7.01334L93.0875 7.22885L92.7146 7.84112L92.3837 7.65287L92.1585 8.49824L91.5062 8.3698L90.3677 10.8382L90.9431 11.7689L92.9469 12.5791L92.492 13.5168L93.3494 14.334L94.1754 13.9998L94.9333 13.0708L94.9822 12.2404L95.6824 11.9782L95.6117 12.784L96.4185 13.5247L96.2596 14.7387L96.6184 15.9298L95.4746 17.3153L95.4851 18.8054L95.727 19.2215L96.5416 18.9682L97.6164 20.3757L98.1508 20.4883L98.2416 22.2186L99.4072 21.448L100.933 22.0963L100.501 23.5918L100.891 24.4688L100.422 25.5016L100.796 25.74L101.727 25.4347L102.128 26.2959L102.833 25.3793L103.169 25.8579L104.065 25.6159L105.201 27.8019L106.017 27.7158L106.171 27.0754L106.604 27.0032L106.966 27.7914L107.731 27.897L107.947 28.6201L108.992 28.6262L109.579 29.1513L109.456 30.9565L110.479 31.4869L110.927 30.6943L111.631 30.77L112.401 32.1546L112.298 32.6261L113.033 33.2692L113.911 34.9133L113.378 35.2186L113.751 35.8475L114.452 36.5178L115.386 36.0279L115.887 37.328L114.501 39.8685L114.155 41.5989L111.984 41.5742L109.935 44.0998L108.353 43.4365L107.767 44.2793L107.918 44.6276L108.691 44.2775L108.56 45.1273L109.021 45.0833L109.381 46.0148L109.77 45.3041L110.078 45.7905L110.546 45.553L110.622 44.8845L110.874 45.6911L111.777 45.7712L112.511 46.5356L111.849 46.4257L111.284 47.2482L110.913 47.0678L110.626 47.9722L109.588 47.7672L109.18 46.9887L108.449 47.2147L108.215 48.6891L108.807 49.5213L108.518 49.9514L109.378 50.1291L109.515 52.4066L109.961 52.2527L110.437 52.6265L108.919 54.0314L109.945 54.6049L109.802 55.2445L103.67 57.8237L104.299 58.4676L104.048 59.0157L105.239 60.249L105.042 61.3362L103.251 61.7304L103.925 62.2573L104.588 64.2753L108.408 63.0208L110.539 63.0191L110.94 63.5768L111.484 63.2065L112.069 63.4915L112.72 62.9091L113.138 63.3824L113.122 64.2762L111.695 64.9227L111.318 64.5937L111.2 64.9984L109.488 64.9095L109.123 65.2148L108.359 64.548L108.019 65.776L106.56 66.3144L106.27 66.112L106.191 68.1731L105.158 68.8628L104.064 68.7643L103.888 70.6406L102.409 70.7348L102.318 71.3013L101.306 71.0286L100.486 71.4112L100.061 70.5588L99.6063 70.7198L100.916 71.888L102.609 71.7763L102.419 72.9252L103.016 73.8092L103.617 73.5709L103.776 74.0916L105.421 74.3441L105.213 75.1877L106.128 77.1476L106.209 79.0636L105.685 79.4313L105.04 79.3116L104.638 80.0022L103.89 80.0119L104.305 80.5353L104.175 81.5399L102.529 82.4864L101.666 82.2709L101.112 82.5841L100.493 82.2533L99.9538 81.137L98.6947 80.4025L97.9648 80.8018L97.6758 79.5545L97.1475 79.6864L96.8961 80.5784L96.2159 81.0138L96.9039 81.9428L97.6435 82.168L97.6618 82.9562L98.0076 83.016L96.7101 85.4756L96.0081 85.948L96.5948 86.6922L96.7136 89.5388L95.6973 89.8036L95.5742 89.3998L95.3044 89.6901L94.5421 89.5203L94.1387 90.6446L92.8089 91.1812L92.437 90.8319L93.0281 90.0481L92.6919 89.7112L91.5193 89.5239L91.5988 90.1898L91.1395 90.5047L90.5641 90.1687L90.3624 90.5065L90.2603 89.0779L90.875 89.033L91.7481 87.8938L92.1262 87.9721L91.8066 87.3731L90.9195 87.6115L90.8191 86.5233L90.5178 87.1848L89.7792 87.2604L89.6639 87.8815L89.2195 87.3695L89.2317 87.8859L88.6825 87.863L88.5664 88.2615L87.8705 87.8375L87.4793 88.1251L88.3167 89.42L86.5634 89.157L85.8343 89.9382L85.8474 90.7404L85.2389 90.6657L85.2354 91.124L84.0619 90.8988L84.3919 87.8639L85.5951 86.3227L86.752 83.7954L86.986 82.1011L85.0564 76.0437L85.0869 75.091L84.6905 75.2818L83.7973 73.0536L84.66 72.7053L83.4673 72.5636L83.7519 71.2063L82.7714 70.967L82.6247 72.2909L82.0458 72.5311L81.8834 69.6466L81.3246 68.2998L82.0109 66.5246L83.3154 64.8911L82.3706 65.4972L82.898 63.7924L83.462 63.5627L83.0656 63.3499L82.0144 64.3448L81.4966 63.1634L82.0607 61.8949L83.3904 61.2114L84.9699 61.3372L85.8431 60.8894L84.832 60.9818L84.0348 60.4619L80.4043 60.9589L79.8508 60.2314L80.455 59.5532L80.9928 57.8114L80.0437 57.1543L79.7599 55.2252L80.5877 51.3616L81.212 50.3728L82.4108 50.0491L84.3605 50.9165L85.3602 49.4773L86.6245 49.9163L87.0716 49.7078L87.2951 48.8457L86.9598 49.4676L86.422 49.5433L86.0002 48.7578L84.3247 49.7738L83.1521 49.6251L82.1724 48.7138L80.4716 49.5328L80.4 48.9284L79.4605 50.4388L79.5827 49.6524L79.1819 49.6199L78.5314 48.3795L77.764 48.0215L78.1158 47.2465L77.5116 46.7134L77.1763 46.9887L77.7858 47.4101L77.399 48.1552L78.1412 48.4516L78.1918 49.8415L77.8827 50.3913L77.0899 48.9742L77.1964 50.2814L77.7299 51.0124L77.4505 51.3739L77.0786 50.7142L76.8568 51.8692L76.4962 51.7645L75.6684 55.6765L74.9935 53.355L75.8108 52.8729L76.0186 53.0867L76.0491 52.1868L74.866 53.2406L74.8302 53.9866L74.5919 55.358L75.1856 56.3177L75.4135 59.4564L76.1705 61.6618L74.6582 65.396L72.8814 67.5099L72.5714 68.46L71.9725 68.072L72.3584 68.5963L72.079 69.191L72.6588 70.1569L70.9125 70.9855L70.7195 71.4113L70.7754 70.3645L70.1555 71.64L67.2872 72.5989L66.8664 72.8935L67.0489 73.2701L65.3733 73.6131L62.6413 74.9969L61.7131 75.0294L61.7332 75.5361L60.3519 76.5645L59.2099 76.4818L59.3321 76.8143L56.1233 77.8919L55.148 78.3546L55.0363 78.7619H53.9702L53.7213 79.1701L51.5891 79.0883L50.2646 79.6996L49.6412 78.8384L49.4666 78.6352L49.8769 78.6247L49.8787 78.0291L50.3624 78.0361L50.4052 77.4458L48.9566 76.9286L50.4794 76.2521L50.2367 75.0865L49.4875 74.5904L48.1176 74.7786L47.5806 74.2077L46.4359 77.0693L46.3399 78.6484L45.258 78.5226L42.0493 76.9005L35.8457 71.9619L28.7776 63.6208L29.7119 62.6479L29.2299 61.2307L28.9916 61.5861L28.0983 61.4603L28.8597 62.1816L28.4589 62.362L28.982 62.7886L28.6362 63.4237L19.9904 55.4679L14.969 49.6391L14.5779 48.1657L15.4667 46.1415L16.979 44.8379L17.3047 45.0032L16.5485 45.7782L17.0052 46.5049L19.2954 45.9542L19.4831 46.3887L18.6353 48.149L20.0009 49.2371L21.5952 48.5774L21.8493 47.8138L23.4131 48.0936L24.6163 47.6924L25.3226 46.6746L24.8555 45.7184L25.8107 46.328L26.0185 47.301L27.7142 47.235L27.887 46.5479L28.5262 46.5092L28.5061 45.5742L28.0294 45.4202L29.0597 44.9628L29.3591 45.8161L29.6333 45.6014L30.3283 46.4266L31.0338 45.3542L31.6537 45.5029L32.767 44.274L33.2472 44.5344L33.1616 43.8561L34.7394 43.1964L35.217 43.5157L37.0043 43.4225L38.4668 41.2188L38.6493 39.8122L39.5678 39.3328L40.4925 37.087L41.762 35.8607L43.0473 33.0202L42.0213 33.2745L41.3665 33.9052L41.0976 35.5449L40.3816 35.8985L38.3708 34.9203L38.0512 35.3743L36.9851 35.6558L36.2796 35.2968L36.442 36.0147L30.344 37.4837L29.5067 38.096L28.6537 39.6732L27.5064 39.1718L26.7345 39.3038L25.8867 38.6414L24.3832 39.017L22.2414 37.9192L19.3574 37.7256L12.361 33.1742L11.3507 32.9147L8.2843 30.2545L8.15683 29.878L9.75117 29.1409L9.18276 29.2077L9.11116 27.6067L8.54712 26.9258L7.68883 26.815L7.71415 26.1614L7.26274 26.1227L6.65329 25.2246L6.40444 21.9073L6.61749 21.4182L6.98333 21.4683L7.0593 20.747L9.03432 19.3967L9.64814 18.3859L10.943 17.6795L10.5728 17.4016L8.52703 17.7904L7.08985 19.4081L6.88641 18.0578L7.46006 17.8405L7.93767 16.9397L9.59313 16.1937L8.81779 16.2712L8.36376 15.7152L8.22668 16.1049L7.68271 16.0715L7.2898 15.6035L7.46181 15.2868L11.1622 15.3097L11.59 8.64612L12.5723 8.35933L12.9626 10.3685L13.6899 10.6201L14.7813 8.9971L15.7557 10.0167L17.4444 9.1493L19.3967 9.82928L21.4162 8.99622L24.9053 9.43167L26.724 8.97336L28.9889 11.0371L34.0348 11.2112L35.107 10.6808L36.1984 8.71473L44.5299 6.10911L45.2057 6.50674L44.4792 7.6336L44.7595 8.32416L44.5194 9.48534L46.0002 10.0325L48.7506 10.0808L50.3659 9.39032L50.2017 8.71383L51.5656 7.5984L52.2728 7.31073L53.1643 7.57727L54.7106 6.4821L54.4757 5.89357L52.4457 5.67366L52.5819 4.04711L52.2702 3.67415L52.6762 1.87784L54.2592 0.867877Z" fill="#574D4F" stroke="#F7F2F3" stroke-width="0.611194"/>
</svg>
