<svg width="14" height="19" viewBox="0 0 14 19" fill="none" xmlns="http://www.w3.org/2000/svg">
<path d="M1.28795 2.79942L4.08198 2.5452L4.67571 1.40955L4.98567 2.32441L6.13559 2.47394L6.57216 4.32216L7.11001 4.9529L7.64349 5.07781L9.43691 4.20955L10.3039 4.17611L10.6095 3.62633L11.0313 4.2333L11.3665 3.90078L11.7996 4.13479L12.0423 4.98279L11.7822 5.81321L12.3846 6.56975L11.8197 7.26291L12.2982 8.14436L12.3008 9.17886L13.1364 9.58439L13.3791 10.9954L11.8415 11.6648L12.74 12.3184L13.0176 13.0609L12.4274 13.8359L12.2222 14.7323L12.6605 15.794L11.9175 16.7248L12.0712 17.1813L11.0059 18.039L10.2804 17.4777L10.3397 18.2748L9.68139 18.0566L8.9139 18.5264L7.91853 18.0944L8.1115 17.3423L6.52763 15.3006L5.52266 14.9584L6.19322 13.784L5.21356 10.2591L4.8224 9.5316L4.2278 9.71636L3.1617 8.76806L4.88265 9.02669L5.24762 8.68272L4.37448 7.97633L3.2525 7.7969L3.57731 7.16352L2.83165 7.16875L2.30865 4.89478L1.28795 2.79942Z" fill="#574D4F" stroke="#F7F2F3" stroke-width="0.611194"/>
</svg>
