<svg width="64" height="64" viewBox="0 0 64 64" fill="none" xmlns="http://www.w3.org/2000/svg">
<path d="M6.35958 15.869L7.29296 14.4L6.79875 13.369L7.08952 11.9298L6.38228 10.6965L4.93636 9.46407L5.17909 8.16302L6.26004 8.15421L7.6981 9.13769L10.1918 7.31147L10.4013 6.52416L13.0268 5.91718L13.7157 4.35575L15.8479 2.54537L17.2624 2.69403L18.6961 2.04483L19.3247 2.10289L20.149 3.07494L22.0297 2.70459L22.4951 1.16955L22.9142 1.0332L23.3621 1.45017L23.8292 1.23728L23.3743 3.22449L24.1235 4.17367L24.7225 4.13141L25.4594 5.89341L26.9385 6.85753L27.6125 6.63673L28.3364 7.21117L29.4601 7.05635L29.6391 8.50782L30.1446 8.13395L31.1391 8.90982L31.333 9.57398L31.6883 9.32944L32.5449 9.81677L32.9596 10.5619L33.4826 10.444L34.0493 9.12887L35.2874 9.64876L35.8235 9.10776L36.4635 9.08924L37.6396 7.8577L38.9083 7.51638L39.1257 6.93491L39.9892 7.24544L41.4098 8.69514L40.8842 9.58098L42.4593 10.3753L43.0679 11.5312L43.6931 11.7353L43.4765 13.324L44.9259 15.6437L45.8986 15.5259L45.8645 14.5758L46.4391 14.823L46.9516 13.9987L47.465 14.4289L48.0325 13.631L49.137 13.8448L50.6502 12.8947L50.5026 12.3502L52.0324 11.8268L51.8822 13.7841L52.3511 14.845L50.6668 15.8399L50.7131 16.8894L50.335 17.353L50.9182 18.0488L52.2349 16.8806L52.7527 17.2703L53.3787 17.5711L53.2521 18.4728L54.7269 19.2953L53.7271 20.7336L53.7647 22.2123L53.2722 23.0269L55.104 22.9503L56.082 23.6286L55.7414 24.9287L56.1632 25.7204L57.0861 26.0433L58.6132 28.1941L59.337 28.3639L57.8806 32.8203L58.4901 33.4555L58.2465 33.9428L58.6673 35.0046L59.495 35.0512L60.4354 36.6566L58.1609 38.7397L58.3425 39.4593L58.9327 39.3361L59.784 40.1498L59.4365 41.2565L60.3647 41.6849L60.397 42.7809L61.8211 44.3037L61.9809 45.0329L63.0592 46.0411L63.4599 47.3852L61.1715 47.5567L60.2093 46.7034L59.7762 45.464L57.0826 45.6865L56.8407 45.1033L56.1265 44.7928L55.0613 45.4288L53.8371 45.4921L53.3621 44.6247L52.9116 44.2896L52.5108 44.5482L51.7573 43.6245L50.6982 43.6817L50.6074 44.1567L50.1621 44.0433L49.4959 44.8218L47.9461 44.8956L46.8486 45.7692L45.7921 45.887L45.5048 46.5371L44.4178 46.0269L43.1884 46.5424L42.372 48.1135L41.6001 48.5243L42.0516 49.6785L41.5233 50.4974L41.9023 50.844L40.9287 50.3435L40.3935 50.7165L40.5952 51.5126L41.5093 51.48L41.395 52.8734L40.5751 52.3905L40.5733 53.4866L39.5474 54.7911L40.5122 56.028L40.3716 56.5567L41.2064 57.0273L41.2605 57.9729L40.3009 58.4198L40.892 59.1728L41.649 59.1561L41.7835 59.8071L41.5748 60.2707L39.3789 61.5392L37.5881 61.9949L37.2581 62.5429L37.4746 62.9678L36.8896 62.6969L36.2854 61.6008L35.8654 62.3705L34.5784 62.4594L35.2533 61.7802L35.2018 61.2524L34.2894 62.2394L33.2923 61.3228L32.6462 61.4987L31.5687 60.8443L30.6703 60.9313L30.3551 59.9619L29.3623 59.6303L29.0052 59.0813L29.8451 58.3943L29.7412 56.4573L28.3713 55.3014L27.5828 55.0735L27.2065 55.3559L26.7586 54.6126L26.9297 53.8182L26.5857 54.149L26.1221 53.8842L25.1782 52.0483L24.2702 52.6148L23.5996 52.0738L23.4974 51.3402L22.7605 51.8521L21.7136 50.6338L19.8399 49.762L19.6373 48.7073L20.1263 47.4942L19.4601 47.1203L19.4802 45.9398L20.3035 45.2941L20.1307 44.9915L19.3012 45.222L19.6853 44.4813L19.1169 43.855L18.4673 44.3863L18.5075 43.7732L18.1591 44.2367L18.0893 43.7916L17.6195 43.9992L17.2205 43.2101L16.5691 43.7969L16.8826 43.2999L15.6209 41.4728L15.3267 40.3952L15.2542 40.9476L14.4623 41.2318L14.843 42.2918L14.099 42.5231L14.1008 43.0166L11.8481 43.2841L11.7285 42.5398L11.1574 42.1035L11.4954 40.9819L8.73974 35.9827L7.26065 32.3065L8.16784 32.3637L6.76121 29.4441L4.74602 28.4817L3.01984 27.0302L2.2803 26.6915L1.35127 26.9326L0.989792 26.5939L2.50818 24.7976L1.74768 24.3542L1.79046 23.2819L3.87114 22.4348L5.83569 20.1458L7.45011 19.3321L5.96579 17.3537L6.35958 15.869Z" fill="#574D4F" stroke="#F7F2F3" stroke-width="0.611194"/>
</svg>
