<svg width="59" height="71" viewBox="0 0 59 71" fill="none" xmlns="http://www.w3.org/2000/svg">
<path d="M42.7605 1.85231L43.4974 1.34033L43.5996 2.07399L44.2702 2.61499L45.1782 2.04847L46.1221 3.88437L46.5857 4.14916L46.9297 3.81839L46.7586 4.61275L47.2065 5.35608L47.5828 5.0737L48.3713 5.30153L49.7412 6.45743L49.8451 8.39449L49.0052 9.08151L49.3623 9.63044L50.355 9.96208L50.6703 10.9315L51.5687 10.8444L52.6462 11.4989L53.2923 11.323L54.2894 12.2396L55.2018 11.2526L55.2533 11.7804L54.5784 12.4595L55.8654 12.3707L56.2854 11.601L56.8896 12.697L57.4746 12.968L57.788 13.2574L57.3916 14.5233L56.5953 15.1373L55.6174 17.1245L54.7085 17.5511L54.2414 18.605L54.5417 18.8513L51.9092 20.0952L51.7765 21.0734L50.2607 23.1019L49.7526 25.4867L49.1065 25.96L49.5867 27.3296L48.5319 29.5473L48.972 30.5545L48.5188 30.9627L49.5151 32.8883L49.2671 33.5507L49.6504 33.9897L49.1038 34.265L49.1606 34.8298L49.7805 35.1298L49.3335 36.4466L49.5998 37.0659L49.2558 37.4539L49.5256 38.352L49.1973 39.9522L50.8815 42.0441L50.4424 43.0979L51.0099 44.1764L50.2896 44.4755L50.383 44.9567L49.5116 45.4827L49.3169 44.9866L48.353 44.5863L47.5436 45.5856L45.9125 45.9217L46.1369 48.332L45.4594 49.3366L45.7589 49.7456L44.7364 49.7465L44.3138 50.6913L43.9515 50.7107L43.9995 51.4285L44.7626 52.4278L46.391 52.0425L47.0686 52.3161L47.0782 51.725L47.8588 52.2994L48.2918 52.1938L48.9353 52.7445L49.1292 53.8168L49.9971 54.5241L51.3653 54.0992L51.0928 53.3673L51.4019 52.938L53.1395 52.4296L55.641 54.4194L56.0007 55.5692L55.4437 55.9914L56.0296 56.6362L55.9737 57.1851L55.5083 57.4121L56.859 57.8695L56.391 58.2434L56.4548 58.8249L55.9073 58.6129L55.9623 59.1715L56.88 59.2436L56.04 59.6957L55.9658 60.9809L55.7082 60.7742L55.5371 61.2299L55.724 62.099L56.7499 63.1529L56.2993 63.6745L56.7883 63.8909L56.4565 64.4284L55.5345 64.4064L55.3468 65.3934L54.5024 65.1682L54.5042 65.9371L53.1692 65.9265L52.0079 67.0243L51.7652 66.8273L51.2029 67.4545L50.5096 66.7059L50.0503 67.473L50.2695 66.9812L49.7203 66.8378L49.7351 67.3296L49.2794 67.648L47.6667 66.7455L47.3445 67.6137L48.1975 67.9111L48.4149 68.4353L46.8485 68.3676L46.4277 70.1173L45.7641 69.7461L45.187 70.0882L44.7906 69.2438L45.4053 69.2138L44.8482 68.591L45.2079 66.4842L45.6262 66.4516L45.8488 64.694L45.4882 64.5735L45.4795 63.0639L46.2679 60.0255L44.2344 58.3075L43.3359 58.6207L43.1561 59.7502L40.5925 61.0064L40.7541 62.6197L39.6373 62.8106L38.5267 63.6261L38.5319 62.2036L36.983 61.9846L37.7854 61.6714L36.8887 61.0811L37.114 60.6923L37.788 60.8023L37.2973 59.8021L35.5755 60.1487L34.829 59.3323L33.7899 59.3034L35.1887 60.3484L34.1252 60.9176L35.1704 61.4753L34.9268 62.267L34.1209 62.4764L33.8432 61.792L33.2792 61.543L31.9302 61.7849L32.5981 62.3576L31.5215 63.0358L31.9695 63.5786L31.7311 64.7767L32.3196 65.1092L32.2183 65.8367L32.7701 66.3126L31.8498 67.0058L30.2992 65.7426L29.5972 66.1693L28.0142 65.82L28.2761 64.8964L27.389 64.7407L27.293 64.4029L27.5654 64.029L28.0159 64.3228L28.4499 63.3332L27.8928 62.9936L28.5162 62.8036L28.1408 62.3726L28.8733 62.2529L28.7869 61.8835L29.3405 61.4797L28.9755 61.1709L28.4071 61.9617L28.3617 61.3504L27.5217 61.0741L29.1964 59.4283L29.9019 59.5312L29.8783 60.015L30.3873 59.7925L29.5133 58.8011L29.6583 58.3577L28.8934 57.9935L29.0314 57.1781L27.8605 56.3969L27.2703 55.3483L26.6643 54.8328L24.4911 54.5417L24.636 53.5001L21.9101 51.6581L21.7084 50.4854L20.5689 50.2268L20.0791 47.3934L19.5238 46.6122L19.7945 45.5891L18.9484 43.7137L19.8521 42.6844L19.7534 41.9429L18.3573 41.8224L18.2761 40.8125L17.3689 40.6955L17.6535 39.4771L17.0127 39.1798L17.7347 38.2086L17.644 36.6753L16.955 36.8293L16.7228 37.4266L16.1684 37.2207L16.2469 36.0138L14.4963 37.2419L13.7009 36.5346L12.3894 37.4143L11.8385 37.2946L11.1408 36.1458L10.2476 36.4695L9.55435 36.2557L9.08024 34.5175L7.50773 33.6888L5.96315 34.6996L4.01781 34.3556L3.86501 35.2204L3.02331 35.281L3.04077 34.5694L2.32917 33.3818L1.84458 33.2481L1.80442 32.7317L2.05501 32.3737L2.71509 32.5408L3.36383 31.099L2.48895 30.3328L3.19968 26.34L2.85654 26.0101L1.74503 26.5836L0.761013 26.5273L0.637909 25.6081L2.25145 23.9587L1.88823 23.1775L1.36522 23.0693L1.62105 22.3163L3.95931 23.1344L3.82921 22.7579L4.75997 21.7683L5.36681 21.9248L6.77779 21.2748L7.66314 21.9829L8.24553 21.7876L8.3145 22.4069L8.87156 22.194L10.2275 24.1531L11.6088 23.6754L11.9616 22.9136L12.3169 23.7994L11.897 24.3026L12.3693 24.7856L12.0603 25.2043L13.2276 25.7462L13.2521 24.9272L13.7445 24.5287L14.6334 26.3576L13.9523 26.9241L13.9811 27.714L13.2966 28.2418L13.5795 28.9306L14.4553 29.4259L14.4963 30.6979L15.8235 30.2361L15.9771 29.8068L15.5397 29.3511L16.219 28.0738L16.8171 28.3148L16.5412 27.5856L17.3349 27.217L18.5319 25.1797L19.7648 26.1886L20.5812 26.0664L20.8073 26.5564L21.6202 26.4763L21.842 25.9107L23.1595 26.2907L23.3141 25.1629L24.5146 24.8093L24.9617 25.1946L25.5642 25.0846L26.4827 26.4622L28.0473 26.7938L29.0113 26.2731L29.3413 26.471L30.1088 25.2236L30.8169 25.4216L33.1124 23.8874L32.0638 23.4739L31.7285 22.6277L32.4156 22.3004L32.179 20.7716L32.6269 20.5446L32.3152 20.3159L33.3499 18.9049L32.1729 18.2609L32.5632 18.2592L32.4156 17.7534L33.28 18.5988L34.5915 18.8275L35.0673 18.4158L34.6456 17.9584L35.8174 18.4184L36.0304 17.7789L35.6532 17.2379L36.1867 16.8341L36.9524 18.9867L37.6605 19.0623L37.8483 19.4969L38.8314 19.028L39.2313 19.5285L39.6749 19.4203L40.1437 18.882L40.3673 16.7567L39.7342 16.5614L39.8757 16.2262L39.3632 15.6844L38.4228 16.3072L38.6987 15.5058L39.8355 15.3853L41.0195 14.2109L41.7608 14.0631L42.1877 13.4957L41.6909 13.3787L41.4866 12.7744L42.5414 11.8129L43.466 12.3864L43.9043 11.9184L44.7783 12.9309V13.4948L45.6384 12.8799L44.9346 11.7654L44.9364 10.8408L45.5109 10.1292L44.8657 9.65327L45.3852 8.39092L44.3828 7.52003L44.4492 6.69666L43.948 7.19719L43.6738 6.55678L43.8266 4.89507L44.1672 4.28282L43.8188 3.42864L42.7457 2.49002L42.7605 1.85231Z" fill="#574D4F" stroke="#F7F2F3" stroke-width="0.611194"/>
</svg>
