<svg width="86" height="70" viewBox="0 0 86 70" fill="none" xmlns="http://www.w3.org/2000/svg">
<path d="M3.73888 17.9627L7.7326 18.4069L10.4987 17.8448L11.6041 17.5422L12.7688 15.7274L13.7651 16.2464L14.9176 18.8811L15.4694 18.4096L15.5795 17.6953L16.1871 18.297L16.0702 17.558L16.3522 17.3935L16.8865 17.7991L17.2061 17.4366L17.6112 17.8879L18.0303 17.4621L17.8321 17.2132L18.2661 17.178L18.8764 18.4518L18.2879 18.8943L18.2696 19.496L18.9506 19.891L18.6695 20.0467L19.0502 20.6026L19.8971 20.7258L20.634 21.3398L20.5406 21.8984L21.2182 21.7524L21.9324 22.7886L22.5165 21.7357L22.444 20.9958L23.2517 20.841L23.3739 20.2701L24.9421 20.6448L25.3201 19.3851L27.4471 17.9134L28.129 18.275L28.1622 19.4617L28.9986 19.2549L29.3252 21.0794L30.6131 21.002L31.013 20.2727L32.1629 20.2146L32.5803 19.7159L32.3847 20.7847L32.823 20.9368L34.2846 19.9252L33.9432 19.254L36.3426 18.5626L36.3522 17.9697L40.0805 17.4859L40.662 18.0137L41.0008 17.1938L41.5761 17.1947L41.7272 16.4329L43.3373 16.8578L43.0605 14.7395L43.9214 14.2073L44.6548 12.0055L45.3953 12.4831L47.2323 12.4559L48.5586 13.8317L50.3913 12.8746L50.18 13.6461L51.0479 13.5458L51.7403 14.3745L51.9027 16.4223L53.0299 16.7927L53.4394 16.257L54.2933 16.9801L55.3673 16.8138L55.0233 17.3337L55.177 18.3357L54.5684 19.2708L55.8772 19.6393L57.0621 20.9369L57.7318 21.1489L57.9806 20.0783L58.3971 20.0159L58.7097 18.1501L59.4588 17.8017L60.4865 16.3916L61.6827 17.2862L62.8378 16.981L63.1906 16.1312L63.6708 16.0952L64.1947 16.6045L64.0943 17.2071L64.7649 17.1332L65.087 17.4912L65.4852 17.1517L66.12 17.7279L65.8816 16.7646L66.4666 15.6307L68.666 16.3573L69.5103 12.4322L69.1794 12.0126L69.836 11.3414L70.504 11.2824L70.6341 10.7335L70.4271 7.93265L71.6067 6.61312L72.3236 6.28412L73.064 6.61927L73.656 3.91162L74.5047 4.2767L74.9054 3.82278L76.3732 4.48781L76.3828 3.55185L76.8045 3.11464L76.5452 2.45222L77.6087 2.7267L77.7501 1.72737L78.3465 1.37463L78.8372 2.1241L80.2481 2.14873L80.6803 3.23777L82.0608 3.44452L82.1393 3.96441L81.9368 6.57968L83.773 7.85698L85.4092 9.84594L85.535 10.5154L83.9921 11.3933L84.165 11.9677L83.6027 11.9985L83.7669 12.5897L83.3626 13.1817L83.0107 13.2037L83.0527 12.7076L82.6973 13.1483L83.0928 13.7086L84.2087 14.0438L83.9493 15.0009L84.4392 15.3132L83.9118 15.9571L84.2235 16.2404L83.6953 16.2773L84.3755 16.6177L83.9625 17.245L83.2465 17.4789L81.8067 16.8605L82.4816 17.5977L82.2773 18.6867L82.4877 18.2926L82.7846 18.619L82.087 20.2262L82.5497 20.3854L81.5674 22.4553L80.7275 22.6875L80.1975 23.6041L79.3637 23.6834L79.3995 24.3044L80.4027 24.8146L80.3477 25.5439L78.1518 25.4269L78.8494 25.9626L78.1483 26.4086L78.2749 26.8397L76.7661 26.2379L76.7224 27.5064L77.0752 27.751L76.567 28.2762L75.6738 28.3826L76.1138 28.9218L74.2619 28.365L73.7372 28.6298L73.5084 28.4609L73.8193 27.9269L72.0931 27.7228L72.5235 29.228L73.078 29.4373L73.1277 30.5818L72.6868 31.0947L72.2808 30.412L72.1804 32.0315L71.7395 31.9392L71.1911 31.7377L71.3203 31.4694L70.1372 31.2143L70.786 32.1635L70.4629 32.6675L70.0133 32.6543L67.1389 31.2477L66.5818 31.6568L65.8248 30.9548L65.4634 31.3058L65.39 31.6709L64.468 32.3289L63.9581 31.9268L64.4497 33.3335L63.9432 34.8078L62.9575 35.0031L62.8396 34.6794L62.1481 34.6644L60.2804 35.1324L59.1288 35.976L57.5056 35.9629L57.5013 36.3728L56.429 36.8672L56.0091 37.6923L55.9314 38.623L56.2649 38.8984L54.9517 39.676L55.2102 39.983L54.9491 40.1484L54.5562 39.727L53.9109 40.1572L53.5721 39.8361L53.8297 39.157L53.5049 39.4306L52.1262 39.0901L52.1123 37.1979L50.3223 36.8768L49.6631 37.5199L50.3293 38.6793L48.4407 39.4587L47.0175 39.1464L46.9599 40.3489L47.5597 41.1345L47.0219 41.2488L47.2358 42.0687L46.2919 43.2774L46.388 44.6321L46.8621 44.6479L47.9125 45.9384L50.1407 45.6578L50.3433 46.3536L51.9621 46.8629L52.2092 47.703L53.3495 48.6777L54.9176 48.2528L56.6508 49.0278L57.0743 48.6196L58.5569 48.7164L58.8293 49.187L59.3418 48.7701L58.941 49.6234L58.3229 49.8231L58.0644 49.5213L57.3773 50.0395L57.9291 50.5717L57.3773 51.2903L57.0725 52.9573L58.7254 54.4475L59.3226 54.0675L60.7598 55.0052L61.378 56.9414L63.3565 57.0083L64.0637 58.4668L63.8917 58.9489L63.0902 58.9251L63.3984 59.9245L64.8914 60.5024L64.6217 61.9178L65.6642 62.5204L65.6546 63.3526L64.3877 63.408L64.3056 63.1186L64.2689 63.6314L64.0908 64.1126L63.6499 64.11L63.4866 64.1584L62.6772 64.0809L61.3675 63.7255L61.2662 63.1696L60.2673 62.903L60.0394 62.4474L59.1969 62.4404L58.604 61.5941L57.4794 61.9416L57.3869 62.3735L55.9139 61.5053L54.5806 59.5234L51.4277 58.7431L50.1695 57.1834L49.8683 58.0367L48.9044 58.4475L48.6162 59.3166L49.6264 59.943L49.8543 60.9185L49.3366 61.6487L49.8395 61.822L49.6203 62.2073L50.2569 62.282L48.914 63.525L49.9548 64.6747L49.4745 66.1816L48.4172 67.9568L47.8618 68.2392L47.737 68.994L45.0931 68.5374L45.59 66.8097L46.3723 66.8141L45.8475 66.1447L43.6446 67.3718L42.9706 66.5511L41.9918 66.8651L41.0505 66.6241L38.3971 65.2008L37.8278 65.2808L37.7344 65.9722L37.0926 65.8658L36.6735 66.2194L35.4092 68.3289L35.0407 67.4818L34.3405 66.9874L34.3108 67.3824L34.0314 66.9434L33.3617 67.0226L32.933 66.3699L31.9909 66.1473L31.2304 66.7561L30.82 66.6619L31.6215 66.1227L32.4772 62.955L33.2805 62.5925L33.2727 62.1228L32.7959 62.1254L32.8876 61.5915L32.5418 61.4428L32.3305 58.8715L30.359 59.6553L30.2254 59.4134L29.2475 60.0678L28.9314 59.5682L28.1281 59.9025L27.675 59.4969L26.6691 59.5928L26.5067 60.1321L22.5366 60.0274L21.6233 60.3062L21.6407 60.7478L21.0968 60.8384L20.6986 61.4384L18.1971 61.6662L17.4174 60.9449L16.4587 60.9827L15.6973 60.4056L15.3777 59.0201L12.9566 58.0305L13.0028 57.0646L14.3798 55.7363L15.6502 55.7785L16.9433 55.0941L17.0306 53.779L17.5571 53.2266L18.1246 53.2187L18.9332 51.3089L19.671 51.2104L20.0211 49.7343L19.6832 49.0121L18.0024 49.2865L17.8714 48.7376L16.8787 48.9848L16.3819 48.0444L15.6152 49.2346L15.2765 46.8947L13.5267 45.7617L14.1947 41.9447L13.704 41.066L13.0299 41.4891L12.286 40.9226L12.3532 39.442L13.325 37.6677L13.0386 35.9084L11.7752 36.1063L11.7272 37.293L8.79606 36.5646L7.69678 34.9047L7.96484 33.4602L7.34405 32.1416L4.89054 31.2945L5.16382 30.8652L4.55438 30.5881L3.89518 27.9833L2.81424 27.6974L2.40735 26.8697L0.546692 26.5169L1.97864 23.2119L1.50365 22.2355L2.88319 21.2274L2.4903 20.4418L1.94632 20.3442L1.60494 19.3994L1.81712 18.4828L3.73888 17.9627Z" fill="#574D4F" stroke="#F7F2F3" stroke-width="0.611194"/>
</svg>
